# This file uses centimeters as units for non-parametric coordinates.

mtllib Energy Sub.mtl
g default
v -3.080321 0.500263 0.296980
v -3.080321 0.992677 0.581275
v -3.080321 0.528692 0.247738
v -3.080321 1.021106 0.532034
v -0.081819 0.528692 0.247738
v -0.081819 1.021106 0.532034
v -0.081819 0.500263 0.296980
v -0.081819 0.992677 0.581275
v -0.478352 0.566507 0.466536
v -0.478352 0.812714 0.608684
v -0.478352 0.708655 0.220329
v -0.478352 0.954862 0.362477
v 0.314714 0.708655 0.220329
v 0.314714 0.954862 0.362477
v 0.314714 0.566507 0.466536
v 0.314714 0.812714 0.608684
v -3.080321 0.992677 -0.581275
v -3.080321 0.500263 -0.296980
v -3.080321 1.021106 -0.532034
v -3.080321 0.528692 -0.247738
v -0.081819 1.021106 -0.532034
v -0.081819 0.528692 -0.247738
v -0.081819 0.992677 -0.581275
v -0.081819 0.500263 -0.296980
v -0.478352 0.812714 -0.608684
v -0.478352 0.566507 -0.466536
v -0.478352 0.954862 -0.362477
v -0.478352 0.708655 -0.220329
v 0.314714 0.954862 -0.362477
v 0.314714 0.708655 -0.220329
v 0.314714 0.812714 -0.608684
v 0.314714 0.566507 -0.466536
v -3.080321 1.507061 0.284295
v -3.080321 1.507061 -0.284295
v -3.080321 1.450202 0.284295
v -3.080321 1.450202 -0.284295
v -0.081819 1.450202 0.284295
v -0.081819 1.450202 -0.284295
v -0.081819 1.507061 0.284295
v -0.081819 1.507061 -0.284295
v -0.478352 1.620779 0.142148
v -0.478352 1.620779 -0.142148
v -0.478352 1.336483 0.142148
v -0.478352 1.336483 -0.142148
v 0.314714 1.336483 0.142148
v 0.314714 1.336483 -0.142148
v 0.314714 1.620779 0.142148
v 0.314714 1.620779 -0.142148
v 0.599700 0.760684 -0.414507
v 0.599700 0.760684 0.414507
v 0.599700 1.478631 0.000000
v 0.000000 0.760684 -0.414507
v 0.000000 0.760684 0.414507
v 0.000000 1.478631 0.000000
v 0.599700 1.000000 0.000000
v 0.000000 1.000000 0.000000
v 0.599700 1.110575 0.350764
v 1.599700 1.110575 0.350764
v 0.599700 1.500000 0.265224
v 1.599700 1.500000 0.265224
v 0.599700 1.500000 -0.265224
v 1.599700 1.500000 -0.265224
v 0.599700 1.110575 -0.350764
v 1.599700 1.110575 -0.350764
v 0.599700 0.255816 -0.161597
v 1.599700 0.255816 -0.161597
v 1.599700 0.255816 0.161597
v 0.599700 0.255816 0.161597
v 2.979265 1.244171 -0.286382
v 2.979265 1.244171 0.286382
v 2.979265 1.500000 -0.216543
v 2.979265 1.500000 0.216543
v 2.979265 0.682645 0.131937
v 2.979265 0.682645 -0.131937
v 0.448603 1.620779 0.099445
v 1.599700 1.620779 0.099445
v 1.599700 1.620779 -0.099445
v 0.448603 1.620779 -0.099445
v 0.599700 0.470603 -0.209132
v 0.599700 0.470603 0.209132
v 1.599700 0.470603 0.209132
v 2.979265 0.823747 0.170746
v 2.979265 0.823747 -0.170746
v 1.599700 0.470603 -0.209132
v -0.486563 0.470603 -0.209132
v -0.486563 0.470603 0.209132
v -0.486563 0.255816 -0.161597
v -0.486563 0.255816 0.161597
v 2.790946 1.500000 -0.223189
v 2.790946 1.225935 -0.295171
v 2.790946 0.775541 -0.175986
v 2.790946 0.624381 -0.135985
v 2.790946 0.624381 0.135985
v 2.790946 0.775541 0.175986
v 2.790946 1.225935 0.295171
v 2.790946 1.500000 0.223189
v 1.599700 1.110575 0.350764
v 1.599700 0.470603 0.209132
v 1.599700 0.470603 -0.209132
v 1.599700 1.110575 -0.350764
v 2.790946 1.225935 0.295171
v 2.790946 1.225935 -0.295171
v 2.790946 0.775541 0.175986
v 2.790946 0.775541 -0.175986
v 1.978625 0.594121 0.059290
v 2.213328 0.654200 0.049893
v 2.213328 0.654200 -0.049893
v 1.978625 0.594121 -0.059290
v 1.634876 1.127779 0.059290
v 1.869579 1.187859 0.049893
v 1.869579 1.187859 -0.049893
v 1.634876 1.127779 -0.059290
v -0.165261 1.620779 0.095281
v 0.165261 1.620779 0.095281
v -0.165261 1.847250 0.095281
v 0.165261 1.847250 0.095281
v -0.165261 1.847250 -0.095281
v 0.165261 1.847250 -0.095281
v -0.165261 1.620779 -0.095281
v 0.165261 1.620779 -0.095281
v 0.691268 1.620779 -0.095281
v 0.691268 1.620779 0.095281
v 0.691268 1.765061 -0.095281
v 0.691268 1.765061 0.095281
vt 0.375000 0.000000
vt 0.625000 0.000000
vt 0.375000 0.250000
vt 0.625000 0.250000
vt 0.375000 0.500000
vt 0.625000 0.500000
vt 0.375000 0.750000
vt 0.625000 0.750000
vt 0.375000 1.000000
vt 0.625000 1.000000
vt 0.875000 0.000000
vt 0.875000 0.250000
vt 0.125000 0.000000
vt 0.125000 0.250000
vt 0.375000 0.000000
vt 0.625000 0.000000
vt 0.625000 0.250000
vt 0.375000 0.250000
vt 0.625000 0.500000
vt 0.375000 0.500000
vt 0.625000 0.750000
vt 0.375000 0.750000
vt 0.625000 1.000000
vt 0.375000 1.000000
vt 0.875000 0.000000
vt 0.875000 0.250000
vt 0.125000 0.000000
vt 0.125000 0.250000
vt 0.375000 0.000000
vt 0.625000 0.000000
vt 0.625000 0.250000
vt 0.375000 0.250000
vt 0.625000 0.500000
vt 0.375000 0.500000
vt 0.625000 0.750000
vt 0.375000 0.750000
vt 0.625000 1.000000
vt 0.375000 1.000000
vt 0.875000 0.000000
vt 0.875000 0.250000
vt 0.125000 0.000000
vt 0.125000 0.250000
vt 0.375000 0.000000
vt 0.625000 0.000000
vt 0.625000 0.250000
vt 0.375000 0.250000
vt 0.625000 0.500000
vt 0.375000 0.500000
vt 0.625000 0.750000
vt 0.375000 0.750000
vt 0.625000 1.000000
vt 0.375000 1.000000
vt 0.875000 0.000000
vt 0.875000 0.250000
vt 0.125000 0.000000
vt 0.125000 0.250000
vt 0.375000 0.000000
vt 0.625000 0.000000
vt 0.625000 0.250000
vt 0.375000 0.250000
vt 0.625000 0.500000
vt 0.375000 0.500000
vt 0.625000 0.750000
vt 0.375000 0.750000
vt 0.625000 1.000000
vt 0.375000 1.000000
vt 0.875000 0.000000
vt 0.875000 0.250000
vt 0.125000 0.000000
vt 0.125000 0.250000
vt 0.375000 0.000000
vt 0.625000 0.000000
vt 0.625000 0.250000
vt 0.375000 0.250000
vt 0.625000 0.500000
vt 0.375000 0.500000
vt 0.625000 0.750000
vt 0.375000 0.750000
vt 0.625000 1.000000
vt 0.375000 1.000000
vt 0.875000 0.000000
vt 0.875000 0.250000
vt 0.125000 0.000000
vt 0.125000 0.250000
vt 0.375000 0.312500
vt 0.458333 0.312500
vt 0.458333 0.688440
vt 0.375000 0.688440
vt 0.541667 0.312500
vt 0.541667 0.688440
vt 0.625000 0.312500
vt 0.625000 0.688440
vt 0.421875 0.291566
vt 0.421875 0.020934
vt 0.500000 0.150000
vt 0.656250 0.156250
vt 0.421875 0.979066
vt 0.421875 0.708434
vt 0.500000 0.837500
vt 0.656250 0.843750
vt 0.375000 0.000000
vt 0.625000 0.000000
vt 0.625000 0.250000
vt 0.375000 0.250000
vt 0.375000 0.250000
vt 0.625000 0.250000
vt 0.625000 0.500000
vt 0.375000 0.500000
vt 0.375000 0.500000
vt 0.625000 0.500000
vt 0.625000 0.750000
vt 0.375000 0.750000
vt 0.375000 0.750000
vt 0.625000 0.750000
vt 0.625000 1.000000
vt 0.375000 1.000000
vt 0.625000 0.000000
vt 0.875000 0.000000
vt 0.875000 0.250000
vt 0.625000 0.250000
vt 0.125000 0.000000
vt 0.125000 0.250000
vt 0.625000 0.750000
vt 0.375000 0.750000
vt 0.625000 0.750000
vt 0.625000 1.000000
vt 0.625000 1.000000
vt 0.625000 0.750000
vt 0.625000 1.000000
vt 0.375000 1.000000
vt 0.375000 1.000000
vt 0.625000 1.000000
vt 0.875000 0.000000
vt 0.875000 0.250000
vt 0.875000 0.250000
vt 0.875000 0.000000
vt 0.625000 0.250000
vt 0.625000 0.000000
vt 0.625000 0.750000
vt 0.625000 1.000000
vt 0.375000 1.000000
vt 0.375000 0.750000
vt 0.375000 0.750000
vt 0.375000 1.000000
vt 0.625000 1.000000
vt 0.625000 1.000000
vt 0.625000 0.750000
vt 0.625000 0.750000
vt 0.625000 0.750000
vt 0.625000 1.000000
vt 0.000000 0.000000
vt 0.568136 0.000000
vt 0.816886 0.596218
vt 0.417213 1.000000
vt 0.073690 0.000000
vt 0.985584 0.000000
vt 0.898015 1.000000
vt 0.000000 0.841509
vt 0.297434 0.000000
vt 0.802849 0.000000
vt 0.303982 1.000000
vt 0.000000 0.596218
vt 0.000000 0.000000
vt 0.973378 0.000000
vt 1.000000 0.523893
vt 0.031636 0.622564
vt 0.000000 0.000000
vt 0.568136 0.000000
vt 0.816886 0.596218
vt 0.417213 1.000000
vt 0.073690 0.000000
vt 0.985584 0.000000
vt 0.898015 1.000000
vt 0.000000 0.841509
vt 0.297434 0.000000
vt 0.802849 0.000000
vt 0.303982 1.000000
vt 0.000000 0.596218
vt 0.000000 0.000000
vt 0.973378 0.000000
vt 0.973378 0.000000
vt 0.000000 0.000000
vt 1.000000 0.523893
vt 0.031636 0.622564
vt 0.031636 0.622564
vt 1.000000 0.523893
vt 0.973378 0.000000
vt 0.000000 0.000000
vt 1.000000 0.523893
vt 0.031636 0.622564
vt 0.375000 0.000000
vt 0.625000 0.000000
vt 0.625000 0.250000
vt 0.375000 0.250000
vt 0.625000 0.500000
vt 0.375000 0.500000
vt 0.625000 0.750000
vt 0.375000 0.750000
vt 0.625000 1.000000
vt 0.375000 1.000000
vt 0.625000 0.000000
vt 0.875000 0.000000
vt 0.875000 0.250000
vt 0.625000 0.250000
vt 0.125000 0.000000
vt 0.125000 0.250000
vt 0.875000 0.000000
vt 0.875000 0.250000
vn -1.000000 -0.000002 0.000000
vn -1.000000 -0.000002 0.000000
vn -1.000000 -0.000002 0.000000
vn -1.000000 -0.000002 0.000000
vn 0.000000 0.500000 -0.866025
vn 0.000000 0.500000 -0.866025
vn 0.000000 0.500000 -0.866025
vn 0.000000 0.500000 -0.866025
vn 1.000000 0.000000 0.000000
vn 1.000000 0.000000 0.000000
vn 1.000000 0.000000 0.000000
vn 1.000000 0.000000 0.000000
vn 0.000000 -0.500000 0.866026
vn 0.000000 -0.500000 0.866026
vn 0.000000 -0.500000 0.866026
vn 0.000000 -0.500000 0.866026
vn 0.000000 0.866025 0.500001
vn 0.000000 0.866025 0.500001
vn 0.000000 0.866025 0.500001
vn 0.000000 0.866025 0.500001
vn 0.000000 -0.866025 -0.500000
vn 0.000000 -0.866025 -0.500000
vn 0.000000 -0.866025 -0.500000
vn 0.000000 -0.866025 -0.500000
vn -1.000000 0.000000 0.000000
vn -1.000000 0.000000 0.000000
vn -1.000000 0.000000 0.000000
vn -1.000000 0.000000 0.000000
vn 0.000000 0.500000 -0.866026
vn 0.000000 0.500000 -0.866026
vn 0.000000 0.500000 -0.866026
vn 0.000000 0.500000 -0.866026
vn 1.000000 0.000000 0.000000
vn 1.000000 0.000000 0.000000
vn 1.000000 0.000000 0.000000
vn 1.000000 0.000000 0.000000
vn 0.000000 -0.500000 0.866025
vn 0.000000 -0.500000 0.866025
vn 0.000000 -0.500000 0.866025
vn 0.000000 -0.500000 0.866025
vn 0.000000 0.866025 0.500000
vn 0.000000 0.866025 0.500000
vn 0.000000 0.866025 0.500000
vn 0.000000 0.866025 0.500000
vn 0.000000 -0.866026 -0.500000
vn 0.000000 -0.866026 -0.500000
vn 0.000000 -0.866026 -0.500000
vn 0.000000 -0.866026 -0.500000
vn -1.000000 0.000001 0.000000
vn -1.000000 0.000001 0.000000
vn -1.000000 0.000001 0.000000
vn -1.000000 0.000001 0.000000
vn 0.000000 0.500000 0.866025
vn 0.000000 0.500000 0.866025
vn 0.000000 0.500000 0.866025
vn 0.000000 0.500000 0.866025
vn 1.000000 0.000000 0.000000
vn 1.000000 0.000000 0.000000
vn 1.000000 0.000000 0.000000
vn 1.000000 0.000000 0.000000
vn 0.000000 -0.500000 -0.866026
vn 0.000000 -0.500000 -0.866026
vn 0.000000 -0.500000 -0.866026
vn 0.000000 -0.500000 -0.866026
vn 0.000000 -0.866025 0.500000
vn 0.000000 -0.866025 0.500000
vn 0.000000 -0.866025 0.500000
vn 0.000000 -0.866025 0.500000
vn 0.000000 0.866025 -0.500001
vn 0.000000 0.866025 -0.500001
vn 0.000000 0.866025 -0.500001
vn 0.000000 0.866025 -0.500001
vn -1.000000 -0.000000 0.000000
vn -1.000000 -0.000000 0.000000
vn -1.000000 -0.000000 0.000000
vn -1.000000 -0.000000 0.000000
vn 0.000000 0.500000 0.866026
vn 0.000000 0.500000 0.866026
vn 0.000000 0.500000 0.866026
vn 0.000000 0.500000 0.866026
vn 1.000000 0.000000 0.000000
vn 1.000000 0.000000 0.000000
vn 1.000000 0.000000 0.000000
vn 1.000000 0.000000 0.000000
vn 0.000000 -0.500000 -0.866025
vn 0.000000 -0.500000 -0.866025
vn 0.000000 -0.500000 -0.866025
vn 0.000000 -0.500000 -0.866025
vn 0.000000 -0.866026 0.500000
vn 0.000000 -0.866026 0.500000
vn 0.000000 -0.866026 0.500000
vn 0.000000 -0.866026 0.500000
vn 0.000000 0.866025 -0.500000
vn 0.000000 0.866025 -0.500000
vn 0.000000 0.866025 -0.500000
vn 0.000000 0.866025 -0.500000
vn -1.000000 0.000000 0.000000
vn -1.000000 0.000000 0.000000
vn -1.000000 0.000000 0.000000
vn -1.000000 0.000000 0.000000
vn 0.000000 -1.000000 0.000000
vn 0.000000 -1.000000 0.000000
vn 0.000000 -1.000000 0.000000
vn 0.000000 -1.000000 0.000000
vn 1.000000 0.000000 0.000000
vn 1.000000 0.000000 0.000000
vn 1.000000 0.000000 0.000000
vn 1.000000 0.000000 0.000000
vn 0.000000 1.000000 0.000000
vn 0.000000 1.000000 0.000000
vn 0.000000 1.000000 0.000000
vn 0.000000 1.000000 0.000000
vn 0.000000 0.000000 -1.000000
vn 0.000000 0.000000 -1.000000
vn 0.000000 0.000000 -1.000000
vn 0.000000 0.000000 -1.000000
vn 0.000000 0.000000 1.000000
vn 0.000000 0.000000 1.000000
vn 0.000000 0.000000 1.000000
vn 0.000000 0.000000 1.000000
vn -1.000000 0.000000 0.000000
vn -1.000000 0.000000 0.000000
vn -1.000000 0.000000 0.000000
vn -1.000000 0.000000 0.000000
vn 0.000000 -1.000000 0.000000
vn 0.000000 -1.000000 0.000000
vn 0.000000 -1.000000 0.000000
vn 0.000000 -1.000000 0.000000
vn 1.000000 0.000000 0.000000
vn 1.000000 0.000000 0.000000
vn 1.000000 0.000000 0.000000
vn 1.000000 0.000000 0.000000
vn 0.000000 1.000000 0.000000
vn 0.000000 1.000000 0.000000
vn 0.000000 1.000000 0.000000
vn 0.000000 1.000000 0.000000
vn 0.000000 0.000000 -1.000000
vn 0.000000 0.000000 -1.000000
vn 0.000000 0.000000 -1.000000
vn 0.000000 0.000000 -1.000000
vn 0.000000 0.000000 1.000000
vn 0.000000 0.000000 1.000000
vn 0.000000 0.000000 1.000000
vn 0.000000 0.000000 1.000000
vn 0.000000 -1.000000 -0.000000
vn 0.000000 -1.000000 -0.000000
vn 0.000000 -1.000000 -0.000000
vn 0.000000 -1.000000 -0.000000
vn 0.000000 0.500000 0.866026
vn 0.000000 0.500000 0.866026
vn 0.000000 0.500000 0.866026
vn 0.000000 0.500000 0.866026
vn 0.000000 0.500000 -0.866025
vn 0.000000 0.500000 -0.866025
vn 0.000000 0.500000 -0.866025
vn 0.000000 0.500000 -0.866025
vn 1.000000 0.000000 0.000000
vn 1.000000 0.000000 0.000000
vn 1.000000 0.000000 0.000000
vn 1.000000 0.000000 0.000000
vn -1.000000 0.000000 0.000000
vn -1.000000 0.000000 0.000000
vn -1.000000 0.000000 0.000000
vn -1.000000 0.000000 0.000000
vn 0.000000 -0.054410 0.998519
vn 0.007777 0.022525 0.999716
vn 0.014509 0.222848 0.974745
vn 0.000000 0.214541 0.976715
vn 0.000000 1.000000 0.000000
vn 0.000000 1.000000 0.000000
vn 0.000000 1.000000 0.000000
vn 0.000000 1.000000 0.000000
vn 0.000000 0.214541 -0.976715
vn 0.014509 0.222848 -0.974745
vn 0.007777 0.022525 -0.999716
vn 0.000000 -0.054410 -0.998519
vn 0.000000 -1.000000 0.000000
vn 0.158785 -0.987313 0.000000
vn 0.158785 -0.987313 0.000000
vn 0.000000 -1.000000 0.000000
vn 1.000000 0.000000 0.000000
vn 1.000000 0.000000 0.000000
vn 1.000000 -0.000001 0.000000
vn 1.000000 -0.000001 0.000000
vn -1.000000 -0.000000 0.000000
vn -1.000000 -0.000000 0.000000
vn -0.994857 -0.101287 0.000000
vn -0.994857 -0.101287 0.000000
vn 0.020434 -0.219812 -0.975328
vn 0.000000 -0.216082 -0.976375
vn 1.000000 0.000000 0.000000
vn 1.000000 0.000000 0.000000
vn 0.000000 -0.216082 0.976375
vn 0.020434 -0.219812 0.975328
vn -1.000000 0.000000 0.000000
vn -1.000000 0.000000 0.000000
vn 0.028490 0.234047 -0.971808
vn 0.037457 0.158918 -0.986581
vn 0.000000 1.000000 0.000000
vn 0.000000 1.000000 0.000000
vn 0.000000 1.000000 0.000000
vn 0.000000 1.000000 0.000000
vn 0.037457 0.158918 0.986581
vn 0.028490 0.234047 0.971808
vn 0.295570 -0.955321 0.000000
vn 0.295570 -0.955321 0.000000
vn 0.000000 0.808245 0.588847
vn 0.000000 0.808245 0.588847
vn 0.000000 0.808245 0.588847
vn 0.000000 0.808245 0.588847
vn 1.000000 0.000000 0.000000
vn 1.000000 0.000000 0.000000
vn 1.000000 0.000000 0.000000
vn 1.000000 0.000000 0.000000
vn 0.000000 0.808245 -0.588847
vn 0.000000 0.808245 -0.588847
vn 0.000000 0.808245 -0.588847
vn 0.000000 0.808245 -0.588847
vn -0.624384 -0.781118 0.000000
vn -0.624384 -0.781118 0.000000
vn -1.000000 0.000000 0.000000
vn -1.000000 0.000000 0.000000
vn -1.000000 0.000000 0.000000
vn -1.000000 0.000000 0.000000
vn 0.000000 -0.216082 0.976375
vn 0.040726 -0.223423 0.973870
vn 0.088340 -0.241558 0.966357
vn 0.090007 -0.233939 0.968076
vn 1.000000 -0.000000 0.000000
vn 1.000000 -0.000000 0.000000
vn 0.040726 -0.223423 -0.973870
vn 0.088340 -0.241558 -0.966357
vn 0.090007 -0.233939 -0.968076
vn 0.000000 -0.216082 -0.976375
vn -0.000000 1.000000 0.000000
vn -0.000000 1.000000 0.000000
vn -0.000000 1.000000 0.000000
vn -0.000000 1.000000 0.000000
vn 0.000000 -0.216082 -0.976375
vn 0.000000 -0.216082 -0.976375
vn 0.000000 -1.000000 0.000000
vn 0.000000 -1.000000 0.000000
vn 0.000000 -0.216082 0.976375
vn 0.000000 -0.216082 0.976375
vn 0.027056 0.258446 -0.965647
vn 0.061540 -0.051174 -0.996792
vn 0.084676 -0.259421 -0.962045
vn 0.096953 -0.259130 -0.960964
vn 0.295571 -0.955321 0.000000
vn 0.295571 -0.955321 0.000000
vn 0.084676 -0.259421 0.962045
vn 0.096953 -0.259130 0.960964
vn 0.061540 -0.051175 0.996792
vn 0.027057 0.258447 0.965647
vn 0.000000 1.000000 0.000000
vn 0.000000 1.000000 0.000000
vn 1.000000 0.000000 0.000000
vn 1.000000 0.000000 0.000000
vn 1.000000 0.000000 0.000000
vn 1.000000 0.000000 0.000000
vn 0.096388 -0.995344 0.000000
vn 0.096388 -0.995344 0.000000
vn 0.096388 -0.995344 0.000000
vn 0.096388 -0.995344 0.000000
vn -1.000000 0.000000 0.000000
vn -1.000000 0.000000 0.000000
vn -1.000000 0.000000 0.000000
vn -1.000000 0.000000 0.000000
vn -0.247986 0.968764 0.000000
vn -0.247986 0.968764 0.000000
vn -0.247986 0.968764 0.000000
vn -0.247986 0.968764 0.000000
vn 0.000000 -0.191699 0.981454
vn 0.000000 -0.191699 0.981454
vn 0.000000 -0.191699 0.981454
vn 0.000000 -0.191699 0.981454
vn 0.000000 -0.191699 -0.981454
vn 0.000000 -0.191699 -0.981454
vn 0.000000 -0.191699 -0.981454
vn 0.000000 -0.191699 -0.981454
vn 0.000000 0.000000 0.000000
vn 0.000000 0.000000 0.000000
vn 0.000000 0.000000 0.000000
vn 0.000000 0.000000 0.000000
vn 0.000000 0.000000 0.000000
vn 0.000000 0.000000 0.000000
vn 0.000000 0.000000 0.000000
vn 0.000000 0.000000 0.000000
vn 0.000000 0.000000 0.000000
vn 0.000000 0.000000 0.000000
vn 0.000000 0.000000 0.000000
vn 0.000000 0.000000 0.000000
vn 0.000000 0.000000 0.000000
vn 0.000000 0.000000 0.000000
vn 0.000000 0.000000 0.000000
vn 0.000000 0.000000 0.000000
vn 0.000000 0.000000 -0.000000
vn 0.000000 0.000000 -0.000000
vn 0.000000 0.000000 -0.000000
vn 0.000000 0.000000 -0.000000
vn 0.000000 0.000000 0.000000
vn 0.000000 0.000000 0.000000
vn 0.000000 0.000000 0.000000
vn 0.000000 0.000000 0.000000
vn -0.295534 0.954541 0.038870
vn -0.210065 0.977437 0.022109
vn -0.225249 0.969025 0.101263
vn -0.269298 0.957172 0.106309
vn -0.210065 0.977437 -0.022109
vn -0.225249 0.969025 -0.101263
vn -0.295534 0.954541 -0.038870
vn -0.269298 0.957172 -0.106309
vn 0.034342 0.022121 0.999165
vn 0.034342 0.022121 0.999165
vn 0.034342 0.022121 0.999165
vn 0.034342 0.022121 0.999165
vn 0.840689 0.541519 0.000000
vn 0.840689 0.541519 0.000000
vn 0.840689 0.541519 0.000000
vn 0.840689 0.541519 0.000000
vn 0.034342 0.022121 -0.999165
vn 0.034342 0.022121 -0.999165
vn 0.034342 0.022121 -0.999165
vn 0.034342 0.022121 -0.999165
vn -0.840689 -0.541519 0.000000
vn -0.840689 -0.541519 0.000000
vn -0.840689 -0.541519 0.000000
vn -0.840689 -0.541519 0.000000
vn 0.000000 0.000000 1.000000
vn 0.000000 0.000000 1.000000
vn 0.000000 0.000000 1.000000
vn 0.000000 0.000000 1.000000
vn 0.000000 1.000000 0.000000
vn 0.095517 0.995428 0.000000
vn 0.095517 0.995428 0.000000
vn 0.000000 1.000000 0.000000
vn 0.000000 0.000000 -1.000000
vn 0.000000 0.000000 -1.000000
vn 0.000000 0.000000 -1.000000
vn 0.000000 0.000000 -1.000000
vn 0.000000 -1.000000 0.000000
vn 0.000000 -1.000000 0.000000
vn 0.000000 -1.000000 0.000000
vn 0.000000 -1.000000 0.000000
vn 1.000000 0.000000 0.000000
vn 1.000000 0.000000 0.000000
vn 1.000000 0.000000 0.000000
vn 1.000000 0.000000 0.000000
vn -1.000000 0.000000 0.000000
vn -1.000000 0.000000 0.000000
vn -1.000000 0.000000 0.000000
vn -1.000000 0.000000 0.000000
vn 0.000000 -1.000000 0.000000
vn 0.000000 -1.000000 0.000000
vn 0.000000 0.000000 -1.000000
vn 0.000000 0.000000 -1.000000
vn 0.154378 0.988012 0.000000
vn 0.154378 0.988012 0.000000
vn 0.000000 0.000000 1.000000
vn 0.000000 0.000000 1.000000
s off
g pCube15
usemtl initialShadingGroup
f 1/1/1 2/2/2 4/4/3 3/3/4
f 3/3/5 4/4/6 6/6/7 5/5/8
f 5/5/9 6/6/10 8/8/11 7/7/12
f 7/7/13 8/8/14 2/10/15 1/9/16
f 2/2/17 8/11/18 6/12/19 4/4/20
f 7/13/21 1/1/22 3/3/23 5/14/24
f 9/15/25 10/16/26 12/17/27 11/18/28
f 11/18/29 12/17/30 14/19/31 13/20/32
f 13/20/33 14/19/34 16/21/35 15/22/36
f 15/22/37 16/21/38 10/23/39 9/24/40
f 10/16/41 16/25/42 14/26/43 12/17/44
f 15/27/45 9/15/46 11/18/47 13/28/48
f 17/29/49 18/30/50 20/31/51 19/32/52
f 19/32/53 20/31/54 22/33/55 21/34/56
f 21/34/57 22/33/58 24/35/59 23/36/60
f 23/36/61 24/35/62 18/37/63 17/38/64
f 18/30/65 24/39/66 22/40/67 20/31/68
f 23/41/69 17/29/70 19/32/71 21/42/72
f 25/43/73 26/44/74 28/45/75 27/46/76
f 27/46/77 28/45/78 30/47/79 29/48/80
f 29/48/81 30/47/82 32/49/83 31/50/84
f 31/50/85 32/49/86 26/51/87 25/52/88
f 26/44/89 32/53/90 30/54/91 28/45/92
f 31/55/93 25/43/94 27/46/95 29/56/96
f 33/57/97 34/58/98 36/59/99 35/60/100
f 35/60/101 36/59/102 38/61/103 37/62/104
f 37/62/105 38/61/106 40/63/107 39/64/108
f 39/64/109 40/63/110 34/65/111 33/66/112
f 34/58/113 40/67/114 38/68/115 36/59/116
f 39/69/117 33/57/118 35/60/119 37/70/120
f 41/71/121 42/72/122 44/73/123 43/74/124
f 43/74/125 44/73/126 46/75/127 45/76/128
f 45/76/129 46/75/130 48/77/131 47/78/132
f 47/78/133 48/77/134 42/79/135 41/80/136
f 42/72/137 48/81/138 46/82/139 44/73/140
f 47/83/141 41/71/142 43/74/143 45/84/144
f 49/85/145 50/86/146 53/87/147 52/88/148
f 50/86/149 51/89/150 54/90/151 53/87/152
f 51/89/153 49/91/154 52/92/155 54/90/156
s 1
f 50/93/157 49/94/158 55/95/159
f 51/96/160 50/93/157 55/95/159
f 49/94/158 51/96/160 55/95/159
s 2
f 52/97/161 53/98/162 56/99/163
f 53/98/162 54/100/164 56/99/163
f 54/100/164 52/97/161 56/99/163
s 3
f 57/101/165 58/102/166 60/103/167 59/104/168
s off
f 75/105/169 76/106/170 77/107/171 78/108/172
s 4
f 61/109/173 62/110/174 64/111/175 63/112/176
s 5
f 65/113/177 66/114/178 67/115/179 68/116/180
s 6
f 70/117/181 69/118/182 71/119/183 72/120/184
s 7
f 63/121/185 57/101/186 59/104/187 61/122/188
s 4
f 63/112/176 64/111/175 84/123/189 79/124/190
s 6
f 69/125/182 70/126/181 82/127/191 83/128/192
s 3
f 58/129/166 57/130/165 80/131/193 81/132/194
s 7
f 57/130/186 63/112/185 79/124/195 80/131/196
s 4
f 64/133/175 62/134/174 89/135/197 90/136/198
s 8
f 62/134/199 60/103/200 96/137/201 89/135/202
s 3
f 60/103/167 58/102/166 95/138/203 96/137/204
s 5
f 67/115/179 66/114/178 92/139/205 93/140/206
s off
f 59/104/207 60/103/208 76/106/209 75/105/210
f 60/103/211 62/110/212 77/107/213 76/106/214
f 62/110/215 61/109/216 78/108/217 77/107/218
s 7
f 61/109/188 59/104/187 75/105/219 78/108/220
s off
f 86/141/221 85/142/222 87/143/223 88/144/224
s 3
f 81/132/194 80/131/193 68/116/225 67/115/226
f 94/145/227 81/132/194 67/115/226 93/140/228
s 6
f 83/128/192 82/127/191 73/146/229 74/147/230
s 4
f 66/114/231 84/123/189 91/148/232 92/139/233
f 79/124/190 84/123/189 66/114/231 65/113/234
s off
f 80/131/235 79/124/236 85/142/237 86/141/238
s 4
f 79/124/190 65/113/234 87/143/239 85/142/240
s 5
f 65/113/177 68/116/180 88/144/241 87/143/242
s 3
f 68/116/225 80/131/193 86/141/243 88/144/244
s 4
f 90/136/198 89/135/197 71/119/245 69/118/246
f 91/148/232 90/149/198 69/125/246 83/128/247
f 92/139/233 91/148/232 83/128/247 74/147/248
s 5
f 93/140/206 92/139/205 74/147/249 73/146/250
s 3
f 82/127/251 94/145/227 93/140/228 73/146/252
f 95/150/203 94/145/227 82/127/251 70/126/253
f 96/137/204 95/138/203 70/117/253 72/120/254
s 8
f 89/135/202 96/137/201 72/120/255 71/119/256
s off
f 97/151/257 98/152/258 99/153/259 100/154/260
f 101/155/261 97/156/262 100/157/263 102/158/264
f 103/159/265 101/160/266 102/161/267 104/162/268
f 109/163/269 110/164/270 111/165/271 112/166/272
f 58/167/273 81/168/274 98/152/275 97/151/276
f 84/169/277 64/170/278 100/154/279 99/153/280
f 95/171/281 58/172/282 97/156/283 101/155/284
f 64/173/285 90/174/286 102/158/287 100/157/288
f 94/175/289 95/176/290 101/160/291 103/159/292
f 90/177/293 91/178/294 104/162/295 102/161/296
f 81/179/297 94/180/298 103/181/299 98/182/300
f 91/183/301 84/184/302 99/185/303 104/186/304
s 9
f 98/182/305 103/181/306 106/187/307 105/188/308
f 103/181/306 104/186/309 107/189/310 106/187/307
f 104/186/309 99/185/311 108/190/312 107/189/310
f 99/185/311 98/182/305 105/188/308 108/190/312
s off
f 105/188/313 106/187/314 110/164/315 109/163/316
f 106/187/317 107/189/318 111/165/319 110/164/320
f 107/189/321 108/190/322 112/166/323 111/165/324
f 108/190/325 105/188/326 109/163/327 112/166/328
s 10
f 113/191/329 114/192/330 116/193/331 115/194/332
s 11
f 115/194/333 116/193/334 118/195/335 117/196/336
s 12
f 117/196/337 118/195/338 120/197/339 119/198/340
s 13
f 119/198/341 120/197/342 114/199/343 113/200/344
s off
f 122/201/345 121/202/346 123/203/347 124/204/348
f 119/205/349 113/191/350 115/194/351 117/206/352
s 13
f 114/192/343 120/207/342 121/202/353 122/201/354
s 12
f 120/207/339 118/208/338 123/203/355 121/202/356
s 11
f 118/208/335 116/193/334 124/204/357 123/203/358
s 10
f 116/193/331 114/192/330 122/201/359 124/204/360
