# This file uses centimeters as units for non-parametric coordinates.

mtllib Legend S Funnel.mtl
g default
v -0.306269 0.211992 4.056823
v 0.306269 0.211992 4.056823
v -0.608226 0.253510 -2.054300
v 0.608226 0.253510 -2.054300
v 0.537159 0.013080 5.374393
v -0.537159 0.013080 5.374393
v -1.066754 0.013080 -2.054300
v 1.066754 0.013080 -2.054300
v -2.050320 0.013080 -5.165396
v 2.050320 0.013080 -5.165396
v -1.348895 0.253510 -5.374393
v 1.348895 0.253510 -5.374393
v -0.455854 0.531201 -2.596187
v 0.455854 0.531201 -2.596187
v 1.010972 0.531201 -5.084535
v -1.010972 0.531201 -5.084535
v -0.553096 0.272193 -2.090758
v 0.553096 0.272193 -2.090758
v 0.414535 0.508819 -2.552510
v -0.414535 0.508819 -2.552510
v -0.553096 0.272193 -3.651676
v 0.553096 0.272193 -3.651676
v 0.414535 0.508819 -4.113427
v -0.414535 0.508819 -4.113427
v -0.306269 -0.185833 4.056823
v 0.306269 -0.185833 4.056823
v -0.608226 -0.227351 -2.054300
v 0.608226 -0.227351 -2.054300
v -1.348895 -0.227351 -5.374393
v 1.348895 -0.227351 -5.374393
v -0.455854 -0.443996 -3.019558
v 0.455854 -0.443996 -3.019558
v 1.010972 -0.443996 -5.084535
v -1.010972 -0.443996 -5.084535
v -0.553096 -0.246034 -2.090758
v 0.553096 -0.246034 -2.090758
v 0.414535 -0.421614 -2.975881
v -0.414535 -0.421614 -2.975881
v -0.553096 -0.246034 -3.651676
v 0.553096 -0.246034 -3.651676
v 0.414535 -0.421614 -4.113427
v -0.414535 -0.421614 -4.113427
v 0.114187 -0.178718 -3.323862
v 0.097133 -0.145805 -3.317780
v 0.070572 -0.119685 -3.312954
v 0.037102 -0.102915 -3.309855
v 0.000000 -0.097137 -3.308787
v -0.037102 -0.102915 -3.309855
v -0.070572 -0.119685 -3.312954
v -0.097133 -0.145805 -3.317780
v -0.114187 -0.178718 -3.323862
v -0.120063 -0.215202 -3.330604
v -0.114187 -0.251686 -3.337345
v -0.097133 -0.284598 -3.343427
v -0.070572 -0.310718 -3.348253
v -0.037102 -0.327488 -3.351352
v -0.000000 -0.333267 -3.352420
v 0.037102 -0.327488 -3.351352
v 0.070572 -0.310718 -3.348253
v 0.097133 -0.284598 -3.343427
v 0.114187 -0.251686 -3.337345
v 0.120063 -0.215202 -3.330604
v 0.090328 -0.408944 -2.120587
v 0.076838 -0.382908 -2.115776
v 0.055826 -0.362246 -2.111958
v 0.029349 -0.348980 -2.109506
v -0.000000 -0.344409 -2.108662
v -0.029349 -0.348980 -2.109506
v -0.055826 -0.362246 -2.111958
v -0.076838 -0.382908 -2.115776
v -0.090328 -0.408944 -2.120587
v -0.094977 -0.437805 -2.125919
v -0.090328 -0.466666 -2.131253
v -0.076838 -0.492702 -2.136063
v -0.055826 -0.513364 -2.139881
v -0.029349 -0.526630 -2.142333
v -0.000000 -0.531201 -2.143177
v 0.029349 -0.526630 -2.142333
v 0.055826 -0.513364 -2.139881
v 0.076838 -0.492702 -2.136063
v 0.090328 -0.466666 -2.131253
v 0.094977 -0.437805 -2.125919
v 0.000000 -0.215202 -3.330604
v -0.000000 -0.437805 -2.125919
v 0.114187 0.429859 -3.240234
v 0.097133 0.463329 -3.240234
v 0.070572 0.489891 -3.240234
v 0.037102 0.506945 -3.240234
v 0.000000 0.512821 -3.240234
v -0.037102 0.506945 -3.240234
v -0.070572 0.489891 -3.240234
v -0.097133 0.463329 -3.240234
v -0.114187 0.429859 -3.240234
v -0.120063 0.392757 -3.240234
v -0.114187 0.355656 -3.240234
v -0.097133 0.322186 -3.240234
v -0.070572 0.295624 -3.240234
v -0.037102 0.278570 -3.240234
v -0.000000 0.272694 -3.240234
v 0.037102 0.278570 -3.240234
v 0.070572 0.295624 -3.240234
v 0.097133 0.322186 -3.240234
v 0.114187 0.355656 -3.240234
v 0.120063 0.392757 -3.240234
v 0.090328 0.422107 -2.015157
v 0.076838 0.448584 -2.015157
v 0.055826 0.469595 -2.015157
v 0.029349 0.483086 -2.015157
v -0.000000 0.487734 -2.015157
v -0.029349 0.483086 -2.015157
v -0.055826 0.469595 -2.015157
v -0.076838 0.448584 -2.015157
v -0.090328 0.422107 -2.015157
v -0.094977 0.392757 -2.015157
v -0.090328 0.363408 -2.015157
v -0.076838 0.336931 -2.015157
v -0.055826 0.315919 -2.015157
v -0.029349 0.302429 -2.015157
v -0.000000 0.297781 -2.015157
v 0.029349 0.302429 -2.015157
v 0.055826 0.315919 -2.015157
v 0.076838 0.336931 -2.015157
v 0.090328 0.363408 -2.015157
v 0.094977 0.392757 -2.015157
v 0.000000 0.392757 -3.240234
v -0.000000 0.392757 -2.015157
vt 0.375000 0.250000
vt 0.625000 0.250000
vt 0.375000 0.500000
vt 0.625000 0.500000
vt 0.875000 0.250000
vt 0.125000 0.250000
vt 0.625000 0.125000
vt 0.375000 0.125000
vt 0.125000 0.125000
vt 0.375000 0.625000
vt 0.625000 0.625000
vt 0.875000 0.125000
vt 0.625000 0.625000
vt 0.375000 0.625000
vt 0.375000 0.500000
vt 0.625000 0.500000
vt 0.375000 0.500000
vt 0.625000 0.500000
vt 0.625000 0.500000
vt 0.375000 0.500000
vt 0.375000 0.500000
vt 0.625000 0.500000
vt 0.625000 0.500000
vt 0.375000 0.500000
vt 0.375000 0.500000
vt 0.625000 0.500000
vt 0.625000 0.500000
vt 0.375000 0.500000
vt 0.375000 0.250000
vt 0.625000 0.250000
vt 0.625000 0.500000
vt 0.375000 0.500000
vt 0.375000 0.125000
vt 0.625000 0.125000
vt 0.125000 0.125000
vt 0.125000 0.250000
vt 0.375000 0.500000
vt 0.625000 0.500000
vt 0.625000 0.625000
vt 0.375000 0.625000
vt 0.875000 0.125000
vt 0.875000 0.250000
vt 0.375000 0.500000
vt 0.625000 0.500000
vt 0.625000 0.500000
vt 0.375000 0.500000
vt 0.625000 0.625000
vt 0.375000 0.625000
vt 0.375000 0.500000
vt 0.625000 0.500000
vt 0.625000 0.500000
vt 0.375000 0.500000
vt 0.625000 0.500000
vt 0.375000 0.500000
vt 0.625000 0.500000
vt 0.375000 0.500000
vt 0.375000 0.312500
vt 0.387500 0.312500
vt 0.387500 0.688440
vt 0.375000 0.688440
vt 0.400000 0.312500
vt 0.400000 0.688440
vt 0.412500 0.312500
vt 0.412500 0.688440
vt 0.425000 0.312500
vt 0.425000 0.688440
vt 0.437500 0.312500
vt 0.437500 0.688440
vt 0.450000 0.312500
vt 0.450000 0.688440
vt 0.462500 0.312500
vt 0.462500 0.688440
vt 0.475000 0.312500
vt 0.475000 0.688440
vt 0.487500 0.312500
vt 0.487500 0.688440
vt 0.500000 0.312500
vt 0.500000 0.688440
vt 0.512500 0.312500
vt 0.512500 0.688440
vt 0.525000 0.312500
vt 0.525000 0.688440
vt 0.537500 0.312500
vt 0.537500 0.688440
vt 0.550000 0.312500
vt 0.550000 0.688440
vt 0.562500 0.312500
vt 0.562500 0.688440
vt 0.575000 0.312500
vt 0.575000 0.688440
vt 0.587500 0.312500
vt 0.587500 0.688440
vt 0.600000 0.312500
vt 0.600000 0.688440
vt 0.612500 0.312500
vt 0.612500 0.688440
vt 0.625000 0.312500
vt 0.625000 0.688440
vt 0.626409 0.064408
vt 0.648603 0.107966
vt 0.500000 0.150000
vt 0.591842 0.029841
vt 0.548284 0.007647
vt 0.500000 -0.000000
vt 0.451716 0.007647
vt 0.408159 0.029841
vt 0.373591 0.064409
vt 0.351397 0.107966
vt 0.343750 0.156250
vt 0.351397 0.204534
vt 0.373591 0.248091
vt 0.408159 0.282659
vt 0.451716 0.304853
vt 0.500000 0.312500
vt 0.548284 0.304853
vt 0.591841 0.282659
vt 0.626409 0.248091
vt 0.648603 0.204534
vt 0.656250 0.156250
vt 0.648603 0.892034
vt 0.626409 0.935591
vt 0.500000 0.837500
vt 0.591841 0.970159
vt 0.548284 0.992353
vt 0.500000 1.000000
vt 0.451716 0.992353
vt 0.408159 0.970159
vt 0.373591 0.935591
vt 0.351397 0.892034
vt 0.343750 0.843750
vt 0.351397 0.795466
vt 0.373591 0.751909
vt 0.408159 0.717341
vt 0.451716 0.695147
vt 0.500000 0.687500
vt 0.548284 0.695147
vt 0.591842 0.717341
vt 0.626409 0.751908
vt 0.648603 0.795466
vt 0.656250 0.843750
vt 0.375000 0.312500
vt 0.387500 0.312500
vt 0.387500 0.688440
vt 0.375000 0.688440
vt 0.400000 0.312500
vt 0.400000 0.688440
vt 0.412500 0.312500
vt 0.412500 0.688440
vt 0.425000 0.312500
vt 0.425000 0.688440
vt 0.437500 0.312500
vt 0.437500 0.688440
vt 0.450000 0.312500
vt 0.450000 0.688440
vt 0.462500 0.312500
vt 0.462500 0.688440
vt 0.475000 0.312500
vt 0.475000 0.688440
vt 0.487500 0.312500
vt 0.487500 0.688440
vt 0.500000 0.312500
vt 0.500000 0.688440
vt 0.512500 0.312500
vt 0.512500 0.688440
vt 0.525000 0.312500
vt 0.525000 0.688440
vt 0.537500 0.312500
vt 0.537500 0.688440
vt 0.550000 0.312500
vt 0.550000 0.688440
vt 0.562500 0.312500
vt 0.562500 0.688440
vt 0.575000 0.312500
vt 0.575000 0.688440
vt 0.587500 0.312500
vt 0.587500 0.688440
vt 0.600000 0.312500
vt 0.600000 0.688440
vt 0.612500 0.312500
vt 0.612500 0.688440
vt 0.625000 0.312500
vt 0.625000 0.688440
vt 0.626409 0.064408
vt 0.648603 0.107966
vt 0.500000 0.150000
vt 0.591842 0.029841
vt 0.548284 0.007647
vt 0.500000 -0.000000
vt 0.451716 0.007647
vt 0.408159 0.029841
vt 0.373591 0.064409
vt 0.351397 0.107966
vt 0.343750 0.156250
vt 0.351397 0.204534
vt 0.373591 0.248091
vt 0.408159 0.282659
vt 0.451716 0.304853
vt 0.500000 0.312500
vt 0.548284 0.304853
vt 0.591841 0.282659
vt 0.626409 0.248091
vt 0.648603 0.204534
vt 0.656250 0.156250
vt 0.648603 0.892034
vt 0.626409 0.935591
vt 0.500000 0.837500
vt 0.591841 0.970159
vt 0.548284 0.992353
vt 0.500000 1.000000
vt 0.451716 0.992353
vt 0.408159 0.970159
vt 0.373591 0.935591
vt 0.351397 0.892034
vt 0.343750 0.843750
vt 0.351397 0.795466
vt 0.373591 0.751909
vt 0.408159 0.717341
vt 0.451716 0.695147
vt 0.500000 0.687500
vt 0.548284 0.695147
vt 0.591842 0.717341
vt 0.626409 0.751908
vt 0.648603 0.795466
vt 0.656250 0.843750
vn 0.000000 0.999977 0.006794
vn 0.000000 0.999977 0.006794
vn -0.000000 0.999956 0.009399
vn 0.000000 0.999956 0.009399
vn 0.000000 0.988795 0.149278
vn 0.000000 0.988795 0.149278
vn 0.000000 0.988795 0.149278
vn 0.000000 0.988795 0.149278
vn -0.491702 0.870143 0.032866
vn -0.491702 0.870143 0.032866
vn -0.491702 0.870143 0.032866
vn -0.491702 0.870143 0.032866
vn 0.000000 -0.656047 -0.754720
vn 0.000000 -0.656047 -0.754720
vn 0.000000 -0.656047 -0.754720
vn 0.000000 -0.656047 -0.754720
vn 0.491702 0.870143 0.032866
vn 0.491702 0.870143 0.032866
vn 0.491702 0.870143 0.032866
vn 0.491702 0.870143 0.032866
vn 0.000000 0.999990 0.004391
vn -0.000000 0.999990 0.004391
vn 0.000000 1.000000 -0.000000
vn 0.000000 1.000000 -0.000000
vn 0.365965 0.925442 0.098117
vn 0.365965 0.925442 0.098117
vn 0.365966 0.925442 0.098117
vn 0.365965 0.925442 0.098117
vn -0.365965 0.925442 0.098117
vn -0.365965 0.925442 0.098117
vn -0.365965 0.925442 0.098117
vn -0.365966 0.925442 0.098117
vn 0.000000 0.889951 0.456057
vn 0.000000 0.889951 0.456057
vn 0.000000 0.889951 0.456057
vn 0.000000 0.889951 0.456057
vn 0.703927 0.692695 0.157037
vn 0.703927 0.692695 0.157037
vn 0.703927 0.692695 0.157037
vn 0.703927 0.692695 0.157037
vn 0.000000 0.722099 -0.691790
vn 0.000000 0.722099 -0.691790
vn 0.000000 0.722099 -0.691790
vn 0.000000 0.722099 -0.691790
vn -0.703927 0.692695 0.157037
vn -0.703927 0.692695 0.157037
vn -0.703927 0.692695 0.157037
vn -0.703927 0.692695 0.157037
vn -0.000001 0.889950 0.456058
vn 0.000001 0.889950 0.456058
vn -0.000001 0.889950 0.456058
vn 0.000001 0.889950 0.456058
vn 0.000000 1.000000 0.000000
vn 0.000000 1.000000 0.000000
vn 0.000000 1.000000 0.000000
vn 0.000000 1.000000 0.000000
vn -0.862937 -0.505311 0.000000
vn -0.862937 -0.505311 0.000000
vn -0.862937 -0.505311 0.000000
vn -0.862937 -0.505311 0.000000
vn 0.000000 -1.000000 0.000000
vn 0.000000 -1.000000 0.000000
vn 0.000000 -1.000000 0.000000
vn 0.000000 -1.000000 0.000000
vn 0.862937 -0.505311 0.000000
vn 0.862937 -0.505311 0.000000
vn 0.862937 -0.505311 0.000000
vn 0.862937 -0.505311 0.000000
vn 0.000000 -0.999977 0.006794
vn 0.000094 -0.999957 0.009276
vn -0.000094 -0.999957 0.009276
vn 0.000000 -0.999977 0.006794
vn 0.000000 -0.988795 0.149278
vn 0.000000 -0.988795 0.149278
vn 0.000000 -0.988795 0.149278
vn 0.000000 -0.988795 0.149278
vn -0.491702 -0.870143 0.032866
vn -0.491702 -0.870143 0.032866
vn -0.491702 -0.870143 0.032866
vn -0.491702 -0.870143 0.032866
vn 0.000000 0.656047 -0.754720
vn 0.000000 0.656047 -0.754720
vn 0.000000 0.656047 -0.754720
vn 0.000000 0.656047 -0.754720
vn 0.491702 -0.870143 0.032866
vn 0.491702 -0.870143 0.032866
vn 0.491702 -0.870143 0.032866
vn 0.491702 -0.870143 0.032866
vn 0.000158 -0.999990 0.004544
vn 0.000000 -1.000000 0.000000
vn 0.000000 -1.000000 0.000000
vn -0.000158 -0.999990 0.004544
vn 0.365965 -0.925442 0.098117
vn 0.365965 -0.925442 0.098117
vn 0.365966 -0.925442 0.098117
vn 0.365965 -0.925442 0.098117
vn -0.365965 -0.925442 0.098117
vn -0.365966 -0.925442 0.098117
vn -0.365965 -0.925442 0.098117
vn -0.365965 -0.925442 0.098117
vn 0.000000 -0.934707 0.355420
vn 0.000000 -0.934707 0.355420
vn 0.000000 -0.934707 0.355420
vn 0.000000 -0.934707 0.355420
vn 0.548172 -0.825898 0.131904
vn 0.548172 -0.825899 0.131904
vn 0.548172 -0.825898 0.131904
vn 0.548172 -0.825898 0.131904
vn 0.000000 -0.800990 -0.598677
vn 0.000000 -0.800990 -0.598678
vn 0.000000 -0.800990 -0.598678
vn 0.000000 -0.800990 -0.598677
vn -0.548172 -0.825898 0.131904
vn -0.548172 -0.825898 0.131904
vn -0.548172 -0.825898 0.131904
vn -0.548172 -0.825898 0.131904
vn 0.010408 -0.939487 0.342426
vn -0.010408 -0.939487 0.342426
vn -0.011342 -0.943250 0.331891
vn 0.011342 -0.943250 0.331891
vn 0.000000 -1.000000 0.000000
vn 0.000000 -1.000000 0.000000
vn 0.000000 -1.000000 0.000000
vn 0.000000 -1.000000 0.000000
vn -0.785002 0.619493 0.000000
vn -0.785002 0.619493 0.000000
vn -0.785002 0.619493 0.000000
vn -0.785002 0.619493 0.000000
vn 0.000000 1.000000 0.000000
vn 0.000000 1.000000 0.000000
vn 0.000000 1.000000 0.000000
vn 0.000000 1.000000 0.000000
vn 0.785002 0.619493 0.000000
vn 0.785002 0.619493 0.000000
vn 0.785002 0.619493 0.000000
vn 0.785002 0.619493 0.000000
vn 0.950858 0.300087 0.076270
vn 0.808848 0.574159 0.126914
vn 0.808847 0.574159 0.126914
vn 0.950858 0.300087 0.076270
vn 0.587661 0.791663 0.167105
vn 0.587661 0.791663 0.167105
vn 0.308951 0.931308 0.192908
vn 0.308951 0.931308 0.192908
vn 0.000000 0.979427 0.201800
vn 0.000000 0.979427 0.201800
vn -0.308952 0.931308 0.192908
vn -0.308952 0.931308 0.192908
vn -0.587661 0.791663 0.167105
vn -0.587661 0.791663 0.167105
vn -0.808848 0.574159 0.126914
vn -0.808848 0.574159 0.126914
vn -0.950858 0.300088 0.076271
vn -0.950858 0.300088 0.076270
vn -0.999790 -0.003720 0.020132
vn -0.999790 -0.003720 0.020132
vn -0.950857 -0.307529 -0.036006
vn -0.950857 -0.307529 -0.036006
vn -0.808848 -0.581598 -0.086649
vn -0.808848 -0.581599 -0.086649
vn -0.587662 -0.799103 -0.126840
vn -0.587662 -0.799103 -0.126840
vn -0.308955 -0.938748 -0.152643
vn -0.308955 -0.938748 -0.152643
vn -0.000000 -0.986867 -0.161535
vn 0.000000 -0.986867 -0.161535
vn 0.308955 -0.938748 -0.152643
vn 0.308955 -0.938748 -0.152643
vn 0.587662 -0.799103 -0.126840
vn 0.587662 -0.799103 -0.126840
vn 0.808848 -0.581598 -0.086649
vn 0.808848 -0.581599 -0.086649
vn 0.950857 -0.307529 -0.036006
vn 0.950857 -0.307529 -0.036006
vn 0.999790 -0.003721 0.020132
vn 0.999790 -0.003721 0.020132
vn 0.000000 0.181709 -0.983352
vn 0.000000 0.181706 -0.983353
vn -0.000000 0.181705 -0.983353
vn 0.000000 0.181707 -0.983353
vn 0.000000 0.181707 -0.983353
vn 0.000000 0.181708 -0.983353
vn 0.000000 0.181707 -0.983353
vn 0.000000 0.181707 -0.983353
vn -0.000002 0.181709 -0.983352
vn -0.000002 0.181706 -0.983353
vn 0.000000 0.181704 -0.983353
vn 0.000000 0.181704 -0.983353
vn 0.000000 0.181703 -0.983353
vn 0.000000 0.181703 -0.983354
vn -0.000007 0.181704 -0.983353
vn 0.000000 0.181704 -0.983353
vn 0.000007 0.181704 -0.983353
vn 0.000000 0.181703 -0.983353
vn 0.000000 0.181703 -0.983354
vn 0.000000 0.181704 -0.983353
vn 0.000000 0.181704 -0.983353
vn 0.000000 -0.181702 0.983354
vn 0.000000 -0.181706 0.983353
vn 0.000000 -0.181705 0.983353
vn -0.000005 -0.181704 0.983353
vn 0.000000 -0.181703 0.983353
vn 0.000000 -0.181703 0.983353
vn -0.000000 -0.181703 0.983353
vn 0.000005 -0.181704 0.983353
vn 0.000000 -0.181706 0.983353
vn 0.000000 -0.181702 0.983354
vn 0.000000 -0.181706 0.983353
vn 0.000001 -0.181707 0.983353
vn -0.000004 -0.181705 0.983353
vn -0.000005 -0.181707 0.983353
vn 0.000000 -0.181706 0.983353
vn 0.000000 -0.181707 0.983353
vn 0.000000 -0.181706 0.983353
vn 0.000005 -0.181707 0.983353
vn 0.000005 -0.181705 0.983353
vn 0.000000 -0.181708 0.983353
vn 0.000000 -0.181706 0.983353
vn 0.950858 0.308951 0.020473
vn 0.808847 0.587663 0.020473
vn 0.808847 0.587663 0.020473
vn 0.950858 0.308951 0.020473
vn 0.587661 0.808848 0.020473
vn 0.587661 0.808848 0.020473
vn 0.308952 0.950857 0.020473
vn 0.308952 0.950857 0.020473
vn 0.000000 0.999790 0.020473
vn 0.000000 0.999790 0.020473
vn -0.308952 0.950857 0.020473
vn -0.308952 0.950857 0.020473
vn -0.587661 0.808848 0.020473
vn -0.587661 0.808848 0.020473
vn -0.808847 0.587662 0.020473
vn -0.808847 0.587662 0.020473
vn -0.950857 0.308952 0.020473
vn -0.950857 0.308952 0.020473
vn -0.999790 -0.000000 0.020473
vn -0.999790 -0.000000 0.020473
vn -0.950857 -0.308952 0.020473
vn -0.950857 -0.308952 0.020473
vn -0.808848 -0.587661 0.020473
vn -0.808848 -0.587661 0.020473
vn -0.587664 -0.808846 0.020473
vn -0.587664 -0.808846 0.020473
vn -0.308952 -0.950857 0.020473
vn -0.308952 -0.950857 0.020473
vn 0.000000 -0.999790 0.020473
vn 0.000000 -0.999790 0.020473
vn 0.308952 -0.950857 0.020473
vn 0.308952 -0.950857 0.020473
vn 0.587664 -0.808846 0.020473
vn 0.587664 -0.808846 0.020473
vn 0.808848 -0.587661 0.020473
vn 0.808848 -0.587661 0.020473
vn 0.950857 -0.308952 0.020473
vn 0.950857 -0.308952 0.020473
vn 0.999790 -0.000001 0.020473
vn 0.999790 -0.000001 0.020473
vn 0.000000 0.000000 -1.000000
vn 0.000000 0.000000 -1.000000
vn -0.000001 0.000000 -1.000000
vn 0.000000 0.000000 -1.000000
vn 0.000000 0.000000 -1.000000
vn -0.000007 0.000000 -1.000000
vn -0.000007 0.000000 -1.000000
vn 0.000000 0.000000 -1.000000
vn 0.000002 0.000000 -1.000000
vn 0.000002 0.000000 -1.000000
vn 0.000000 0.000000 -1.000000
vn 0.000000 0.000000 -1.000000
vn 0.000000 0.000000 -1.000000
vn 0.000000 0.000000 -1.000000
vn -0.000007 0.000000 -1.000000
vn -0.000000 0.000000 -1.000000
vn 0.000007 0.000000 -1.000000
vn 0.000000 0.000000 -1.000000
vn -0.000002 0.000000 -1.000000
vn -0.000002 0.000000 -1.000000
vn 0.000000 0.000000 -1.000000
vn -0.000001 0.000000 1.000000
vn -0.000001 0.000000 1.000000
vn -0.000000 0.000000 1.000000
vn 0.000000 0.000000 1.000000
vn 0.000000 0.000000 1.000000
vn 0.000000 0.000000 1.000000
vn 0.000000 0.000000 1.000000
vn 0.000000 0.000000 1.000000
vn 0.000000 0.000000 1.000000
vn 0.000000 0.000000 1.000000
vn 0.000000 0.000000 1.000000
vn 0.000001 0.000000 1.000000
vn 0.000001 0.000000 1.000000
vn 0.000000 0.000000 1.000000
vn -0.000005 0.000000 1.000000
vn -0.000000 0.000000 1.000000
vn 0.000005 0.000000 1.000000
vn 0.000000 0.000000 1.000000
vn 0.000000 0.000000 1.000000
vn 0.000000 0.000000 1.000000
vn 0.000000 0.000000 1.000000
s 1
g pCube2
usemtl initialShadingGroup
f 1/1/1 2/2/2 4/4/3 3/3/4
s off
f 6/8/5 5/7/6 2/2/7 1/1/8
f 7/9/9 6/8/10 1/1/11 3/6/12
f 11/15/13 12/16/14 10/13/15 9/14/16
f 5/7/17 8/12/18 4/5/19 2/2/20
s 1
f 13/17/21 14/18/22 15/19/23 16/20/24
s off
f 4/4/25 8/11/26 10/13/27 12/16/28
f 7/10/29 3/3/30 11/15/31 9/14/32
f 21/25/33 22/26/34 23/27/35 24/28/36
f 4/4/37 12/16/38 15/19/39 14/18/40
f 12/16/41 11/15/42 16/20/43 15/19/44
f 11/15/45 3/3/46 13/17/47 16/20/48
s 1
f 3/3/4 4/4/3 18/22/49 17/21/50
f 4/4/3 14/18/22 19/23/51 18/22/49
f 14/18/22 13/17/21 20/24/52 19/23/51
f 13/17/21 3/3/4 17/21/50 20/24/52
s off
f 17/21/53 18/22/54 22/26/55 21/25/56
f 18/22/57 19/23/58 23/27/59 22/26/60
f 19/23/61 20/24/62 24/28/63 23/27/64
f 20/24/65 17/21/66 21/25/67 24/28/68
s 3
f 25/29/69 27/32/70 28/31/71 26/30/72
s off
f 6/33/73 25/29/74 26/30/75 5/34/76
f 7/35/77 27/36/78 25/29/79 6/33/80
f 29/37/81 9/40/82 10/39/83 30/38/84
f 5/34/85 26/30/86 28/42/87 8/41/88
s 3
f 31/43/89 34/46/90 33/45/91 32/44/92
s off
f 28/31/93 30/38/94 10/39/95 8/47/96
f 7/48/97 9/40/98 29/37/99 27/32/100
f 39/49/101 42/52/102 41/51/103 40/50/104
f 28/31/105 32/44/106 33/45/107 30/38/108
f 30/38/109 33/45/110 34/46/111 29/37/112
f 29/37/113 34/46/114 31/43/115 27/32/116
s 3
f 27/32/70 35/54/117 36/53/118 28/31/71
f 28/31/71 36/53/118 37/55/119 32/44/92
f 32/44/92 37/55/119 38/56/120 31/43/89
f 31/43/89 38/56/120 35/54/117 27/32/70
s off
f 35/54/121 39/49/122 40/50/123 36/53/124
f 36/53/125 40/50/126 41/51/127 37/55/128
f 37/55/129 41/51/130 42/52/131 38/56/132
f 38/56/133 42/52/134 39/49/135 35/54/136
s 5
f 43/57/137 44/58/138 64/59/139 63/60/140
f 44/58/138 45/61/141 65/62/142 64/59/139
f 45/61/141 46/63/143 66/64/144 65/62/142
f 46/63/143 47/65/145 67/66/146 66/64/144
f 47/65/145 48/67/147 68/68/148 67/66/146
f 48/67/147 49/69/149 69/70/150 68/68/148
f 49/69/149 50/71/151 70/72/152 69/70/150
f 50/71/151 51/73/153 71/74/154 70/72/152
f 51/73/153 52/75/155 72/76/156 71/74/154
f 52/75/155 53/77/157 73/78/158 72/76/156
f 53/77/157 54/79/159 74/80/160 73/78/158
f 54/79/159 55/81/161 75/82/162 74/80/160
f 55/81/161 56/83/163 76/84/164 75/82/162
f 56/83/163 57/85/165 77/86/166 76/84/164
f 57/85/165 58/87/167 78/88/168 77/86/166
f 58/87/167 59/89/169 79/90/170 78/88/168
f 59/89/169 60/91/171 80/92/172 79/90/170
f 60/91/171 61/93/173 81/94/174 80/92/172
f 61/93/173 62/95/175 82/96/176 81/94/174
f 62/95/175 43/97/137 63/98/140 82/96/176
s 6
f 44/99/177 43/100/178 83/101/179
f 45/102/180 44/99/177 83/101/179
f 46/103/181 45/102/180 83/101/179
f 47/104/182 46/103/181 83/101/179
f 48/105/183 47/104/182 83/101/179
f 49/106/184 48/105/183 83/101/179
f 50/107/185 49/106/184 83/101/179
f 51/108/186 50/107/185 83/101/179
f 52/109/187 51/108/186 83/101/179
f 53/110/188 52/109/187 83/101/179
f 54/111/189 53/110/188 83/101/179
f 55/112/190 54/111/189 83/101/179
f 56/113/191 55/112/190 83/101/179
f 57/114/192 56/113/191 83/101/179
f 58/115/193 57/114/192 83/101/179
f 59/116/194 58/115/193 83/101/179
f 60/117/195 59/116/194 83/101/179
f 61/118/196 60/117/195 83/101/179
f 62/119/197 61/118/196 83/101/179
f 43/100/178 62/119/197 83/101/179
s 7
f 63/120/198 64/121/199 84/122/200
f 64/121/199 65/123/201 84/122/200
f 65/123/201 66/124/202 84/122/200
f 66/124/202 67/125/203 84/122/200
f 67/125/203 68/126/204 84/122/200
f 68/126/204 69/127/205 84/122/200
f 69/127/205 70/128/206 84/122/200
f 70/128/206 71/129/207 84/122/200
f 71/129/207 72/130/208 84/122/200
f 72/130/208 73/131/209 84/122/200
f 73/131/209 74/132/210 84/122/200
f 74/132/210 75/133/211 84/122/200
f 75/133/211 76/134/212 84/122/200
f 76/134/212 77/135/213 84/122/200
f 77/135/213 78/136/214 84/122/200
f 78/136/214 79/137/215 84/122/200
f 79/137/215 80/138/216 84/122/200
f 80/138/216 81/139/217 84/122/200
f 81/139/217 82/140/218 84/122/200
f 82/140/218 63/120/198 84/122/200
s 8
f 85/141/219 86/142/220 106/143/221 105/144/222
f 86/142/220 87/145/223 107/146/224 106/143/221
f 87/145/223 88/147/225 108/148/226 107/146/224
f 88/147/225 89/149/227 109/150/228 108/148/226
f 89/149/227 90/151/229 110/152/230 109/150/228
f 90/151/229 91/153/231 111/154/232 110/152/230
f 91/153/231 92/155/233 112/156/234 111/154/232
f 92/155/233 93/157/235 113/158/236 112/156/234
f 93/157/235 94/159/237 114/160/238 113/158/236
f 94/159/237 95/161/239 115/162/240 114/160/238
f 95/161/239 96/163/241 116/164/242 115/162/240
f 96/163/241 97/165/243 117/166/244 116/164/242
f 97/165/243 98/167/245 118/168/246 117/166/244
f 98/167/245 99/169/247 119/170/248 118/168/246
f 99/169/247 100/171/249 120/172/250 119/170/248
f 100/171/249 101/173/251 121/174/252 120/172/250
f 101/173/251 102/175/253 122/176/254 121/174/252
f 102/175/253 103/177/255 123/178/256 122/176/254
f 103/177/255 104/179/257 124/180/258 123/178/256
f 104/179/257 85/181/219 105/182/222 124/180/258
s 9
f 86/183/259 85/184/260 125/185/261
f 87/186/262 86/183/259 125/185/261
f 88/187/263 87/186/262 125/185/261
f 89/188/264 88/187/263 125/185/261
f 90/189/265 89/188/264 125/185/261
f 91/190/266 90/189/265 125/185/261
f 92/191/267 91/190/266 125/185/261
f 93/192/268 92/191/267 125/185/261
f 94/193/269 93/192/268 125/185/261
f 95/194/270 94/193/269 125/185/261
f 96/195/271 95/194/270 125/185/261
f 97/196/272 96/195/271 125/185/261
f 98/197/273 97/196/272 125/185/261
f 99/198/274 98/197/273 125/185/261
f 100/199/275 99/198/274 125/185/261
f 101/200/276 100/199/275 125/185/261
f 102/201/277 101/200/276 125/185/261
f 103/202/278 102/201/277 125/185/261
f 104/203/279 103/202/278 125/185/261
f 85/184/260 104/203/279 125/185/261
s 10
f 105/204/280 106/205/281 126/206/282
f 106/205/281 107/207/283 126/206/282
f 107/207/283 108/208/284 126/206/282
f 108/208/284 109/209/285 126/206/282
f 109/209/285 110/210/286 126/206/282
f 110/210/286 111/211/287 126/206/282
f 111/211/287 112/212/288 126/206/282
f 112/212/288 113/213/289 126/206/282
f 113/213/289 114/214/290 126/206/282
f 114/214/290 115/215/291 126/206/282
f 115/215/291 116/216/292 126/206/282
f 116/216/292 117/217/293 126/206/282
f 117/217/293 118/218/294 126/206/282
f 118/218/294 119/219/295 126/206/282
f 119/219/295 120/220/296 126/206/282
f 120/220/296 121/221/297 126/206/282
f 121/221/297 122/222/298 126/206/282
f 122/222/298 123/223/299 126/206/282
f 123/223/299 124/224/300 126/206/282
f 124/224/300 105/204/280 126/206/282
