# This file uses centimeters as units for non-parametric coordinates.

mtllib Missile-Large.mtl
g default
v -0.854266 -9.074573 -0.854266
v 0.854266 -9.074573 -0.854266
v 0.854266 -9.074573 0.854266
v -0.854266 -9.074573 0.854266
v -1.059199 -10.128404 -1.059199
v 1.059199 -10.128404 -1.059199
v 1.059199 -10.128404 1.059199
v -1.059199 -10.128404 1.059199
v -1.092950 9.078926 0.916374
v -1.134545 8.900835 0.960448
v -0.961275 8.901267 1.134545
v -0.916374 9.078926 1.092950
v 0.916374 9.078926 1.092950
v 0.960448 8.900835 1.134545
v 1.134545 8.901267 0.961275
v 1.092950 9.078926 0.916374
v -0.916374 9.078926 -1.092950
v -0.960448 8.900835 -1.134545
v -1.134545 8.901267 -0.961275
v -1.092950 9.078926 -0.916374
v 1.092950 9.078926 -0.916374
v 1.134545 8.900835 -0.960448
v 0.961275 8.901267 -1.134545
v 0.916374 9.078926 -1.092950
v -1.050470 -9.016623 1.050470
v -0.959621 -8.991791 1.134545
v -1.134545 -8.991791 0.959621
v 1.050470 -9.016623 1.050470
v 1.134545 -8.991791 0.959621
v 0.959621 -8.991791 1.134545
v -1.050470 -9.016623 -1.050470
v -1.134545 -8.991791 -0.959621
v -0.959621 -8.991791 -1.134545
v 1.050470 -9.016623 -1.050470
v 0.959621 -8.991791 -1.134545
v 1.134545 -8.991791 -0.959621
v -0.838859 9.611196 0.679117
v -0.668674 9.601272 0.843597
v -0.637243 9.715626 0.637243
v 0.637243 9.715626 0.637243
v 0.679117 9.611196 0.838859
v 0.838859 9.611196 0.679117
v 0.637243 9.715626 -0.637243
v 0.838859 9.611196 -0.679117
v 0.679117 9.611196 -0.838859
v -0.637243 9.715626 -0.637243
v -0.679117 9.611196 -0.838859
v -0.838859 9.611196 -0.679117
vt 0.375000 0.750000
vt 0.625000 0.750000
vt 0.625000 1.000000
vt 0.375000 1.000000
vt 0.625000 1.000000
vt 0.605728 1.000000
vt 0.394272 1.000000
vt 0.625000 1.000000
vt 0.375000 1.000000
vt 0.375000 0.980728
vt 0.375000 1.000000
vt 0.375000 0.750000
vt 0.375000 0.750000
vt 0.625000 0.750000
vt 0.625000 0.769272
vt 0.625000 0.980728
vt 0.625000 0.750000
vt 0.351079 0.250000
vt 0.150127 0.250000
vt 0.355819 0.248736
vt 0.355728 0.000000
vt 0.394272 0.000000
vt 0.394090 0.248742
vt 0.605819 0.248736
vt 0.605728 0.000000
vt 0.644272 0.000000
vt 0.650127 0.250000
vt 0.644090 0.248742
vt 0.855819 0.248736
vt 0.851079 0.250000
vt 0.375000 0.480545
vt 0.402974 0.500000
vt 0.394181 0.501264
vt 0.394272 0.750000
vt 0.375000 0.769272
vt 0.605545 0.500000
vt 0.625000 0.501264
vt 0.625000 0.750000
vt 0.605728 0.750000
vt 0.375000 0.482400
vt 0.394272 0.250000
vt 0.599692 0.250000
vt 0.625000 0.267600
vt 0.625000 0.474692
vt 0.607400 0.500000
vt 0.400308 0.500000
vt 0.399044 0.475956
vt 0.399044 0.274044
vt 0.600956 0.274044
vt 0.600956 0.475956
vt 0.605910 0.501258
vt 0.855728 0.000000
vt 0.144090 0.248742
vt 0.144272 0.000000
vt 0.394455 0.250000
vt 0.597026 0.250000
vt 0.625000 0.269455
vt 0.625000 0.472026
vt 0.375000 0.275308
vt 0.375000 0.277974
vt 0.620439 0.250000
vt 0.375000 0.501258
vt 0.379561 0.500000
vt 0.384250 0.000000
vt 0.615405 0.000000
vn 0.000000 -1.000000 0.000000
vn 0.000000 -1.000000 0.000000
vn 0.000000 -1.000000 0.000000
vn 0.000000 -1.000000 0.000000
vn 0.000000 0.190889 -0.981611
vn 0.000000 0.190889 -0.981611
vn 0.000000 0.190889 -0.981611
vn 0.000000 0.190889 -0.981611
vn 0.981612 0.190889 0.000000
vn 0.981612 0.190889 0.000000
vn 0.981612 0.190889 0.000000
vn 0.981612 0.190889 0.000000
vn 0.000000 0.190889 0.981611
vn 0.000000 0.190889 0.981611
vn 0.000000 0.190889 0.981611
vn 0.000000 0.190889 0.981611
vn -0.981612 0.190889 0.000000
vn -0.981612 0.190889 0.000000
vn -0.981612 0.190889 0.000000
vn -0.981612 0.190889 0.000000
vn -0.283260 -0.959043 0.000000
vn -0.283260 -0.959043 0.000000
vn -0.283260 -0.959043 0.000000
vn -0.283260 -0.959043 0.000000
vn -0.283260 -0.959043 0.000000
vn -0.283260 -0.959043 0.000000
vn 0.000000 -0.959043 0.283261
vn 0.000000 -0.959043 0.283261
vn 0.000000 -0.959043 0.283261
vn 0.000000 -0.959043 0.283261
vn 0.000000 -0.959043 0.283261
vn 0.000000 -0.959043 0.283261
vn 0.000000 -0.959043 -0.283261
vn 0.000000 -0.959043 -0.283261
vn 0.000000 -0.959043 -0.283261
vn 0.000000 -0.959043 -0.283261
vn 0.000000 -0.959043 -0.283261
vn 0.000000 -0.959043 -0.283261
vn 0.283260 -0.959043 0.000000
vn 0.283260 -0.959043 0.000000
vn 0.283260 -0.959043 0.000000
vn 0.283260 -0.959043 0.000000
vn 0.283260 -0.959043 0.000000
vn 0.283260 -0.959043 0.000000
vn -0.601834 0.501895 0.621206
vn -0.601365 0.502885 0.620860
vn -0.224490 0.808427 0.544105
vn -0.560876 0.580824 0.589967
vn -0.999999 0.001181 0.000000
vn -0.943770 0.330604 0.000013
vn -0.943843 0.330394 0.000013
vn -0.999999 0.001168 0.000000
vn -0.707943 0.003407 0.706261
vn -0.707943 0.003397 0.706261
vn -0.707945 -0.000045 0.706268
vn -0.707945 -0.000045 0.706268
vn 0.000014 0.327826 0.944738
vn 0.000000 0.001168 0.999999
vn 0.000000 0.001181 0.999999
vn 0.000013 0.329957 0.943996
vn 0.613470 0.496721 0.613941
vn 0.613382 0.496942 0.613850
vn 0.535015 0.810277 0.239186
vn 0.234792 0.806708 0.542305
vn 0.706261 0.003407 0.707943
vn 0.706261 0.003397 0.707943
vn 0.706267 -0.000045 0.707945
vn 0.706267 -0.000045 0.707945
vn 0.943843 0.330394 -0.000013
vn 0.999999 0.001168 -0.000000
vn 0.999999 0.001181 -0.000000
vn 0.943770 0.330604 -0.000013
vn -0.613470 0.496721 -0.613941
vn -0.613382 0.496942 -0.613850
vn -0.535015 0.810277 -0.239186
vn -0.239186 0.810278 -0.535013
vn -0.000000 0.001181 -0.999999
vn -0.000013 0.330604 -0.943770
vn -0.000013 0.330394 -0.943843
vn -0.000000 0.001168 -0.999999
vn -0.706261 0.003407 -0.707943
vn -0.706261 0.003397 -0.707943
vn -0.706267 -0.000045 -0.707945
vn -0.706267 -0.000045 -0.707945
vn 0.613940 0.496721 -0.613470
vn 0.613850 0.496942 -0.613382
vn 0.239186 0.810278 -0.535013
vn 0.535015 0.810277 -0.239186
vn 0.707943 0.003407 -0.706261
vn 0.707943 0.003397 -0.706261
vn 0.707945 -0.000045 -0.706268
vn 0.707945 -0.000045 -0.706268
vn -0.459930 0.887955 0.000000
vn -0.459930 0.887955 0.000000
vn -0.246462 0.937291 -0.246460
vn -0.020829 0.881898 0.470980
vn 0.243796 0.935606 0.255353
vn 0.246462 0.937291 -0.246460
vn 0.000000 0.000000 1.000000
vn 0.000000 0.000000 1.000000
vn 0.000000 1.000000 0.000000
vn 0.000000 1.000000 0.000000
vn 0.000000 1.000000 0.000000
vn 0.000000 1.000000 0.000000
vn 0.000000 0.000000 -1.000000
vn 0.000000 0.000000 -1.000000
vn 1.000000 0.000000 0.000000
vn 1.000000 0.000000 0.000000
vn -1.000000 0.000000 0.000000
vn -1.000000 0.000000 0.000000
vn 0.000000 0.430803 0.902446
vn 0.000000 0.430803 0.902446
vn 0.902446 0.430803 0.000000
vn 0.902446 0.430803 0.000000
vn 0.000000 0.430803 -0.902446
vn 0.000000 0.430803 -0.902446
vn -0.902446 0.430803 0.000000
vn -0.902446 0.430803 0.000000
vn -0.694308 0.189376 0.694315
vn 0.694308 0.189376 0.694315
vn -0.694308 0.189376 -0.694315
vn 0.694308 0.189376 -0.694315
s off
g pCube1
usemtl initialShadingGroup
f 5/1/1 6/2/2 7/3/3 8/4/4
f 1/13/5 2/17/6 6/2/7 5/1/8
f 2/17/9 3/8/10 7/3/11 6/2/12
f 3/8/13 4/11/14 8/4/15 7/3/16
f 4/11/17 1/13/18 5/1/19 8/4/20
f 25/9/21 27/10/22 32/35/23 31/12/24 1/13/25 4/11/26
f 28/5/27 30/6/28 26/7/29 25/9/30 4/11/31 3/8/32
f 31/12/33 33/34/34 35/39/35 34/14/36 2/17/37 1/13/38
f 34/14/39 36/15/40 29/16/41 28/5/42 3/8/43 2/17/44
s 1
f 9/60/45 12/55/46 38/41/47 37/59/48
s 2
f 10/20/49 9/18/50 20/19/51 19/53/52
s 1
f 11/23/53 10/20/54 27/21/55 26/22/56
s 3
f 12/55/57 11/23/58 14/24/59 13/56/60
s 1
f 13/56/61 16/57/62 42/43/63 41/42/64
f 15/28/65 14/24/66 30/25/67 29/26/68
s 5
f 16/27/69 15/28/70 22/29/71 21/30/72
s 1
f 17/32/73 20/31/74 48/40/75 47/46/76
s 7
f 18/33/77 17/32/78 24/36/79 23/51/80
s 1
f 19/62/81 18/33/82 33/34/83 32/35/84
f 21/58/85 24/36/86 45/45/87 44/44/88
f 23/51/89 22/37/90 36/38/91 35/39/92
f 37/59/93 39/48/94 46/47/95 48/40/75
f 39/48/96 38/41/47 41/42/64 40/49/97
f 40/49/97 42/43/63 44/44/88 43/50/98
f 43/50/98 45/45/87 47/46/76 46/47/95
s 3
f 11/23/58 26/22/99 30/25/100 14/24/59
s off
f 39/48/101 40/49/102 43/50/103 46/47/104
s 7
f 18/33/77 23/51/80 35/39/105 33/34/106
s 5
f 15/28/70 29/26/107 36/52/108 22/29/71
s 2
f 19/53/52 32/54/109 27/21/110 10/20/49
s 3
f 12/55/57 13/56/60 41/42/111 38/41/112
s 5
f 16/57/69 21/58/72 44/44/113 42/43/114
s 7
f 24/36/79 17/32/78 47/46/115 45/45/116
s 2
f 20/31/51 9/60/50 37/59/117 48/40/118
s 1
f 9/60/45 10/20/54 11/23/53 12/55/46
f 13/56/61 14/24/66 15/28/65 16/61/62
f 17/32/73 18/33/82 19/62/81 20/63/74
f 21/58/85 22/37/90 23/51/89 24/36/86
f 25/64/119 26/22/56 27/21/55
f 28/65/120 29/26/68 30/25/67
f 31/12/121 32/35/84 33/34/83
f 34/14/122 35/39/92 36/38/91
f 37/59/48 38/41/47 39/48/96
f 40/49/97 41/42/64 42/43/63
f 43/50/98 44/44/88 45/45/87
f 46/47/95 47/46/76 48/40/75
