# This file uses centimeters as units for non-parametric coordinates.

mtllib Missile-Default.mtl
g default
v 0.809017 -3.923978 -0.587785
v 0.309017 -3.923978 -0.951057
v -0.309017 -3.923978 -0.951057
v -0.809017 -3.923978 -0.587785
v -1.000000 -3.923978 0.000000
v -0.809017 -3.923978 0.587785
v -0.309017 -3.923978 0.951057
v 0.309017 -3.923978 0.951057
v 0.809017 -3.923978 0.587785
v 1.000000 -3.923978 0.000000
v 0.809017 3.923978 -0.587785
v 0.309017 3.923978 -0.951057
v -0.309017 3.923978 -0.951057
v -0.809017 3.923978 -0.587785
v -1.000000 3.923978 0.000000
v -0.809017 3.923978 0.587785
v -0.309017 3.923978 0.951057
v 0.309017 3.923978 0.951057
v 0.809017 3.923978 0.587785
v 1.000000 3.923978 0.000000
v 0.456579 5.161901 -0.331724
v 0.174397 5.161901 -0.536741
v -0.000000 5.161901 -0.000000
v -0.174398 5.161901 -0.536741
v -0.456579 5.161901 -0.331724
v -0.564362 5.161901 0.000000
v -0.456579 5.161901 0.331724
v -0.174398 5.161901 0.536740
v 0.174398 5.161901 0.536740
v 0.456579 5.161901 0.331724
v 0.564362 5.161901 -0.000000
v 0.428536 -3.923978 -0.311350
v 0.163686 -3.923978 -0.503775
v -0.163686 -3.923978 -0.503775
v -0.428536 -3.923978 -0.311350
v -0.529700 -3.923978 0.000000
v -0.428536 -3.923978 0.311350
v -0.163686 -3.923978 0.503775
v 0.163686 -3.923978 0.503775
v 0.428536 -3.923978 0.311350
v 0.529700 -3.923978 -0.000000
v 0.736447 -4.942651 -0.535059
v 0.281298 -4.942651 -0.865746
v -0.281298 -4.942651 -0.865746
v -0.736447 -4.942651 -0.535060
v -0.910299 -4.942651 0.000001
v -0.736447 -4.942651 0.535061
v -0.281298 -4.942651 0.865746
v 0.281298 -4.942651 0.865746
v 0.736447 -4.942651 0.535057
v 0.910298 -4.942651 -0.000001
v 0.663595 -4.942651 -0.482129
v 0.253471 -4.942651 -0.780103
v -0.253471 -4.942651 -0.780103
v -0.663595 -4.942651 -0.482130
v -0.820249 -4.942651 0.000001
v -0.663595 -4.942651 0.482131
v -0.253471 -4.942651 0.780103
v 0.253471 -4.942651 0.780103
v 0.663595 -4.942651 0.482128
v 0.820248 -4.942651 -0.000001
v 0.229780 -3.549896 -0.166945
v 0.087768 -3.549896 -0.270123
v -0.000000 -3.549895 0.000000
v -0.087768 -3.549895 -0.270122
v -0.229780 -3.549896 -0.166945
v -0.284024 -3.549896 0.000001
v -0.229780 -3.549896 0.166946
v -0.087768 -3.549896 0.270123
v 0.087768 -3.549896 0.270123
v 0.229780 -3.549896 0.166945
v 0.284024 -3.549896 -0.000000
vt 0.626409 0.064409
vt 0.548284 0.007647
vt 0.451716 0.007647
vt 0.373591 0.064409
vt 0.343750 0.156250
vt 0.373591 0.248091
vt 0.451716 0.304853
vt 0.548284 0.304853
vt 0.626409 0.248091
vt 0.656250 0.156250
vt 0.375000 0.312500
vt 0.400000 0.312500
vt 0.425000 0.312500
vt 0.450000 0.312500
vt 0.475000 0.312500
vt 0.500000 0.312500
vt 0.525000 0.312500
vt 0.550000 0.312500
vt 0.575000 0.312500
vt 0.600000 0.312500
vt 0.625000 0.312500
vt 0.375000 0.688440
vt 0.400000 0.688440
vt 0.425000 0.688440
vt 0.450000 0.688440
vt 0.475000 0.688440
vt 0.500000 0.688440
vt 0.525000 0.688440
vt 0.550000 0.688440
vt 0.575000 0.688440
vt 0.600000 0.688440
vt 0.625000 0.688440
vt 0.626409 0.751909
vt 0.548284 0.695147
vt 0.451716 0.695147
vt 0.373591 0.751909
vt 0.343750 0.843750
vt 0.373591 0.935591
vt 0.451716 0.992353
vt 0.548284 0.992353
vt 0.626409 0.935591
vt 0.656250 0.843750
vt 0.500000 0.150000
vt 0.500000 0.837500
vt 0.626409 0.935591
vt 0.548284 0.992353
vt 0.451716 0.992353
vt 0.373591 0.935591
vt 0.343750 0.843750
vt 0.373591 0.751909
vt 0.451716 0.695147
vt 0.548284 0.695147
vt 0.626409 0.751909
vt 0.656250 0.843750
vt 0.548284 0.007647
vt 0.626409 0.064409
vt 0.451716 0.007647
vt 0.373591 0.064409
vt 0.343750 0.156250
vt 0.373591 0.248091
vt 0.451716 0.304853
vt 0.548284 0.304853
vt 0.626409 0.248091
vt 0.656250 0.156250
vt 0.548284 0.007647
vt 0.626409 0.064409
vt 0.451716 0.007647
vt 0.373591 0.064409
vt 0.343750 0.156250
vt 0.373591 0.248091
vt 0.451716 0.304853
vt 0.548284 0.304853
vt 0.626409 0.248091
vt 0.656250 0.156250
vt 0.548284 0.007647
vt 0.626409 0.064409
vt 0.451716 0.007647
vt 0.373591 0.064409
vt 0.343750 0.156250
vt 0.373591 0.248091
vt 0.451716 0.304853
vt 0.548284 0.304853
vt 0.626409 0.248091
vt 0.656250 0.156250
vt 0.548284 0.007647
vt 0.626409 0.064409
vt 0.451716 0.007647
vt 0.373591 0.064409
vt 0.343750 0.156250
vt 0.373591 0.248091
vt 0.451716 0.304853
vt 0.548284 0.304853
vt 0.626409 0.248091
vt 0.656250 0.156250
vn 0.587785 0.000000 -0.809017
vn 0.587785 0.000000 -0.809017
vn 0.587434 0.034582 -0.808533
vn 0.587434 0.034582 -0.808533
vn -0.000000 0.000000 -1.000000
vn -0.000000 0.000000 -1.000000
vn -0.000000 0.034582 -0.999402
vn -0.000000 0.034582 -0.999402
vn -0.587785 0.000000 -0.809017
vn -0.587785 0.000000 -0.809017
vn -0.587434 0.034582 -0.808533
vn -0.587434 0.034582 -0.808533
vn -0.951057 0.000000 -0.309017
vn -0.951057 0.000000 -0.309017
vn -0.950488 0.034582 -0.308832
vn -0.950488 0.034582 -0.308832
vn -0.951057 0.000000 0.309017
vn -0.951057 0.000000 0.309017
vn -0.950488 0.034582 0.308832
vn -0.950488 0.034582 0.308832
vn -0.587785 0.000000 0.809017
vn -0.587785 0.000000 0.809017
vn -0.587434 0.034582 0.808533
vn -0.587434 0.034582 0.808533
vn 0.000000 0.000000 1.000000
vn 0.000000 0.000000 1.000000
vn 0.000000 0.034582 0.999402
vn 0.000000 0.034582 0.999402
vn 0.587785 0.000000 0.809017
vn 0.587785 0.000000 0.809017
vn 0.587434 0.034582 0.808533
vn 0.587434 0.034582 0.808533
vn 0.951057 0.000000 0.309017
vn 0.951057 0.000000 0.309017
vn 0.950488 0.034582 0.308832
vn 0.950488 0.034582 0.308832
vn 0.951057 0.000000 -0.309017
vn 0.951057 0.000000 -0.309017
vn 0.950488 0.034582 -0.308832
vn 0.950488 0.034582 -0.308832
vn -0.000002 -1.000000 0.000002
vn -0.000002 -1.000000 0.000003
vn -0.000000 -1.000000 -0.000000
vn 0.000000 -1.000000 0.000002
vn 0.000003 -1.000000 0.000001
vn 0.000003 -1.000000 -0.000001
vn 0.000002 -1.000000 -0.000003
vn 0.000001 -1.000000 -0.000003
vn -0.000001 -1.000000 -0.000003
vn -0.000002 -1.000000 -0.000001
vn -0.000003 -1.000000 0.000001
vn 0.000000 1.000000 0.000001
vn 0.000000 1.000000 0.000001
vn 0.000000 1.000000 0.000000
vn 0.000000 1.000000 0.000000
vn 0.000000 1.000000 -0.000002
vn 0.000000 1.000000 -0.000000
vn 0.000000 1.000000 0.000001
vn 0.000000 1.000000 -0.000000
vn 0.000000 1.000000 -0.000001
vn 0.000000 1.000000 -0.000001
vn 0.000000 1.000000 0.000001
vn 0.557395 0.317382 -0.767189
vn 0.557395 0.317382 -0.767189
vn -0.000000 0.317382 -0.948298
vn -0.000000 0.317382 -0.948298
vn -0.557396 0.317382 -0.767189
vn -0.557396 0.317382 -0.767189
vn -0.901885 0.317383 -0.293040
vn -0.901885 0.317383 -0.293040
vn -0.901885 0.317383 0.293040
vn -0.901885 0.317383 0.293040
vn -0.557396 0.317383 0.767189
vn -0.557396 0.317383 0.767189
vn 0.000000 0.317382 0.948298
vn 0.000000 0.317382 0.948298
vn 0.557396 0.317382 0.767189
vn 0.557396 0.317382 0.767189
vn 0.901885 0.317382 0.293040
vn 0.901885 0.317383 0.293040
vn 0.901885 0.317383 -0.293040
vn 0.901885 0.317382 -0.293040
vn 0.000000 -1.000000 0.000000
vn 0.000000 -1.000000 0.000000
vn 0.000000 -1.000000 0.000000
vn 0.000000 -1.000000 0.000000
vn 0.000000 -1.000000 0.000001
vn 0.000000 -1.000000 0.000001
vn 0.000000 -1.000000 0.000001
vn 0.000000 -1.000000 0.000001
vn 0.000000 -1.000000 -0.000001
vn 0.000000 -1.000000 -0.000001
vn 0.000000 -1.000000 -0.000001
vn 0.000000 -1.000000 -0.000001
vn 0.000000 -1.000000 0.000000
vn 0.000000 -1.000000 0.000000
vn 0.000000 -1.000000 0.000000
vn 0.000000 -1.000000 0.000000
vn 0.000000 -1.000000 0.000000
vn 0.000000 -1.000000 0.000000
vn 0.000000 -1.000000 0.000000
vn 0.000000 -1.000000 0.000000
vn 0.000000 -1.000000 -0.000001
vn 0.000000 -1.000000 -0.000001
vn 0.000000 -1.000000 -0.000001
vn 0.000000 -1.000000 -0.000001
vn 0.000000 -1.000000 0.000000
vn 0.000000 -1.000000 0.000000
vn 0.000000 -1.000000 0.000000
vn 0.000000 -1.000000 0.000000
vn 0.000000 -1.000000 0.000000
vn 0.000000 -1.000000 0.000000
vn 0.000000 -1.000000 0.000000
vn 0.000000 -1.000000 0.000000
vn 0.000000 -1.000000 0.000000
vn 0.000000 -1.000000 0.000000
vn 0.000000 -1.000000 0.000000
vn 0.000000 -1.000000 0.000000
vn 0.000000 -1.000000 0.000000
vn 0.000000 -1.000000 0.000000
vn 0.000000 -1.000000 0.000000
vn 0.000000 -1.000000 0.000000
vn 0.553860 0.334825 -0.762320
vn 0.553860 0.334825 -0.762320
vn 0.553860 0.334825 -0.762320
vn 0.553860 0.334825 -0.762320
vn -0.000000 0.334826 -0.942280
vn -0.000000 0.334826 -0.942280
vn -0.000000 0.334826 -0.942280
vn -0.000000 0.334826 -0.942280
vn -0.553859 0.334826 -0.762320
vn -0.553859 0.334826 -0.762320
vn -0.553859 0.334826 -0.762320
vn -0.553859 0.334826 -0.762320
vn -0.896162 0.334826 -0.291180
vn -0.896162 0.334826 -0.291180
vn -0.896162 0.334826 -0.291180
vn -0.896162 0.334826 -0.291180
vn -0.896161 0.334826 0.291180
vn -0.896162 0.334826 0.291180
vn -0.896162 0.334826 0.291181
vn -0.896162 0.334826 0.291181
vn -0.553858 0.334826 0.762321
vn -0.553858 0.334826 0.762321
vn -0.553858 0.334826 0.762321
vn -0.553858 0.334826 0.762321
vn 0.000000 0.334826 0.942280
vn 0.000000 0.334826 0.942280
vn 0.000000 0.334826 0.942280
vn 0.000000 0.334826 0.942280
vn 0.553861 0.334825 0.762319
vn 0.553861 0.334825 0.762319
vn 0.553861 0.334825 0.762319
vn 0.553861 0.334825 0.762319
vn 0.896162 0.334825 0.291181
vn 0.896162 0.334825 0.291181
vn 0.896162 0.334825 0.291181
vn 0.896162 0.334825 0.291181
vn 0.896161 0.334826 -0.291181
vn 0.896161 0.334826 -0.291181
vn 0.896161 0.334826 -0.291181
vn 0.896161 0.334826 -0.291181
vn 0.000000 -1.000000 0.000004
vn 0.000000 -1.000000 0.000004
vn 0.000000 -1.000000 0.000004
vn 0.000000 -1.000000 0.000004
vn 0.000000 -1.000000 0.000006
vn 0.000000 -1.000000 0.000006
vn 0.000000 -1.000000 0.000006
vn 0.000000 -1.000000 0.000006
vn 0.000000 -1.000000 0.000002
vn 0.000000 -1.000000 0.000002
vn 0.000000 -1.000000 0.000002
vn 0.000000 -1.000000 0.000002
vn 0.000000 -1.000000 0.000001
vn 0.000000 -1.000000 0.000001
vn 0.000000 -1.000000 0.000001
vn 0.000000 -1.000000 0.000001
vn 0.000000 -1.000000 0.000000
vn 0.000000 -1.000000 0.000000
vn 0.000000 -1.000000 0.000000
vn 0.000000 -1.000000 0.000000
vn 0.000000 -1.000000 0.000001
vn 0.000000 -1.000000 0.000001
vn 0.000000 -1.000000 0.000001
vn 0.000000 -1.000000 0.000001
vn 0.000000 -1.000000 -0.000006
vn 0.000000 -1.000000 -0.000006
vn 0.000000 -1.000000 -0.000006
vn 0.000000 -1.000000 -0.000006
vn 0.000000 -1.000000 -0.000002
vn 0.000000 -1.000000 -0.000002
vn 0.000000 -1.000000 -0.000002
vn 0.000000 -1.000000 -0.000002
vn 0.000000 -1.000000 -0.000001
vn 0.000000 -1.000000 -0.000001
vn 0.000000 -1.000000 -0.000001
vn 0.000000 -1.000000 -0.000001
vn 0.000000 -1.000000 0.000000
vn 0.000000 -1.000000 0.000000
vn 0.000000 -1.000000 0.000000
vn 0.000000 -1.000000 0.000000
vn -0.551949 -0.343840 0.759688
vn -0.551949 -0.343840 0.759688
vn -0.551949 -0.343840 0.759688
vn -0.551949 -0.343840 0.759688
vn 0.000000 -0.343841 0.939028
vn 0.000000 -0.343841 0.939028
vn 0.000000 -0.343841 0.939028
vn 0.000000 -0.343841 0.939028
vn 0.551947 -0.343841 0.759689
vn 0.551948 -0.343841 0.759689
vn 0.551947 -0.343841 0.759689
vn 0.551947 -0.343841 0.759689
vn 0.893069 -0.343840 0.290175
vn 0.893069 -0.343840 0.290175
vn 0.893069 -0.343840 0.290175
vn 0.893069 -0.343840 0.290175
vn 0.893069 -0.343840 -0.290176
vn 0.893069 -0.343840 -0.290176
vn 0.893069 -0.343840 -0.290176
vn 0.893069 -0.343840 -0.290176
vn 0.551946 -0.343840 -0.759691
vn 0.551946 -0.343840 -0.759691
vn 0.551946 -0.343840 -0.759691
vn 0.551946 -0.343840 -0.759691
vn -0.000000 -0.343840 -0.939028
vn -0.000000 -0.343840 -0.939028
vn -0.000000 -0.343840 -0.939028
vn -0.000000 -0.343840 -0.939028
vn -0.551950 -0.343840 -0.759688
vn -0.551950 -0.343840 -0.759688
vn -0.551950 -0.343840 -0.759688
vn -0.551950 -0.343840 -0.759688
vn -0.893069 -0.343840 -0.290176
vn -0.893069 -0.343840 -0.290176
vn -0.893069 -0.343840 -0.290176
vn -0.893069 -0.343840 -0.290176
vn -0.893068 -0.343840 0.290177
vn -0.893068 -0.343840 0.290177
vn -0.893068 -0.343840 0.290177
vn -0.893068 -0.343840 0.290177
s 1
g pCylinder2
usemtl initialShadingGroup
f 1/11/1 2/12/2 12/23/3 11/22/4
s 2
f 2/12/5 3/13/6 13/24/7 12/23/8
s 3
f 3/13/9 4/14/10 14/25/11 13/24/12
s 4
f 4/14/13 5/15/14 15/26/15 14/25/16
s 5
f 5/15/17 6/16/18 16/27/19 15/26/20
s 6
f 6/16/21 7/17/22 17/28/23 16/27/24
s 7
f 7/17/25 8/18/26 18/29/27 17/28/28
s 8
f 8/18/29 9/19/30 19/30/31 18/29/32
s 9
f 9/19/33 10/20/34 20/31/35 19/30/36
s 10
f 10/20/37 1/21/38 11/32/39 20/31/40
s 11
f 63/85/41 62/86/42 64/43/43
f 65/87/44 63/85/41 64/43/43
f 66/88/45 65/87/44 64/43/43
f 67/89/46 66/88/45 64/43/43
f 68/90/47 67/89/46 64/43/43
f 69/91/48 68/90/47 64/43/43
f 70/92/49 69/91/48 64/43/43
f 71/93/50 70/92/49 64/43/43
f 72/94/51 71/93/50 64/43/43
f 62/86/42 72/94/51 64/43/43
s 12
f 21/45/52 22/46/53 23/44/54
f 22/46/53 24/47/55 23/44/54
f 24/47/55 25/48/56 23/44/54
f 25/48/56 26/49/57 23/44/54
f 26/49/57 27/50/58 23/44/54
f 27/50/58 28/51/59 23/44/54
f 28/51/59 29/52/60 23/44/54
f 29/52/60 30/53/61 23/44/54
f 30/53/61 31/54/62 23/44/54
f 31/54/62 21/45/52 23/44/54
s 1
f 11/41/4 12/40/3 22/46/63 21/45/64
s 2
f 12/40/8 13/39/7 24/47/65 22/46/66
s 3
f 13/39/12 14/38/11 25/48/67 24/47/68
s 4
f 14/38/16 15/37/15 26/49/69 25/48/70
s 5
f 15/37/20 16/36/19 27/50/71 26/49/72
s 6
f 16/36/24 17/35/23 28/51/73 27/50/74
s 7
f 17/35/28 18/34/27 29/52/75 28/51/76
s 8
f 18/34/32 19/33/31 30/53/77 29/52/78
s 9
f 19/33/36 20/42/35 31/54/79 30/53/80
s 10
f 20/42/40 11/41/39 21/45/81 31/54/82
s off
f 2/2/83 1/1/84 32/56/85 33/55/86
f 3/3/87 2/2/88 33/55/89 34/57/90
f 4/4/91 3/3/92 34/57/93 35/58/94
f 5/5/95 4/4/96 35/58/97 36/59/98
f 6/6/99 5/5/100 36/59/101 37/60/102
f 7/7/103 6/6/104 37/60/105 38/61/106
f 8/8/107 7/7/108 38/61/109 39/62/110
f 9/9/111 8/8/112 39/62/113 40/63/114
f 10/10/115 9/9/116 40/63/117 41/64/118
f 1/1/119 10/10/120 41/64/121 32/56/122
f 33/55/123 32/56/124 42/66/125 43/65/126
f 34/57/127 33/55/128 43/65/129 44/67/130
f 35/58/131 34/57/132 44/67/133 45/68/134
f 36/59/135 35/58/136 45/68/137 46/69/138
f 37/60/139 36/59/140 46/69/141 47/70/142
f 38/61/143 37/60/144 47/70/145 48/71/146
f 39/62/147 38/61/148 48/71/149 49/72/150
f 40/63/151 39/62/152 49/72/153 50/73/154
f 41/64/155 40/63/156 50/73/157 51/74/158
f 32/56/159 41/64/160 51/74/161 42/66/162
f 43/65/163 42/66/164 52/76/165 53/75/166
f 44/67/167 43/65/168 53/75/169 54/77/170
f 45/68/171 44/67/172 54/77/173 55/78/174
f 46/69/175 45/68/176 55/78/177 56/79/178
f 47/70/179 46/69/180 56/79/181 57/80/182
f 48/71/183 47/70/184 57/80/185 58/81/186
f 49/72/187 48/71/188 58/81/189 59/82/190
f 50/73/191 49/72/192 59/82/193 60/83/194
f 51/74/195 50/73/196 60/83/197 61/84/198
f 42/66/199 51/74/200 61/84/201 52/76/202
f 53/75/203 52/76/204 62/86/205 63/85/206
f 54/77/207 53/75/208 63/85/209 65/87/210
f 55/78/211 54/77/212 65/87/213 66/88/214
f 56/79/215 55/78/216 66/88/217 67/89/218
f 57/80/219 56/79/220 67/89/221 68/90/222
f 58/81/223 57/80/224 68/90/225 69/91/226
f 59/82/227 58/81/228 69/91/229 70/92/230
f 60/83/231 59/82/232 70/92/233 71/93/234
f 61/84/235 60/83/236 71/93/237 72/94/238
f 52/76/239 61/84/240 72/94/241 62/86/242
