# This file uses centimeters as units for non-parametric coordinates.

mtllib Missile Rack.mtl
g default
v -1.626832 4.455868 0.630139
v -2.126832 4.455868 0.266868
v -2.744866 4.455868 0.266868
v -3.244866 4.455868 0.630139
v -3.435849 4.455868 1.217925
v -3.244866 4.455868 1.805710
v -2.744866 4.455868 2.168981
v -2.126832 4.455868 2.168981
v -1.626832 4.455868 1.805710
v -1.435849 4.455868 1.217925
v -1.979271 5.693791 0.886201
v -2.261452 5.693791 0.681184
v -2.435849 5.693791 1.217925
v -2.610247 5.693791 0.681184
v -2.892428 5.693791 0.886201
v -3.000211 5.693791 1.217925
v -2.892428 5.693791 1.549648
v -2.610247 5.693791 1.754665
v -2.261452 5.693791 1.754665
v -1.979271 5.693791 1.549649
v -1.871487 5.693791 1.217925
v 0.809017 4.455868 0.630139
v 0.309017 4.455868 0.266868
v -0.309017 4.455868 0.266868
v -0.809017 4.455868 0.630139
v -1.000000 4.455868 1.217925
v -0.809017 4.455868 1.805710
v -0.309017 4.455868 2.168981
v 0.309017 4.455868 2.168981
v 0.809017 4.455868 1.805710
v 1.000000 4.455868 1.217925
v 0.456578 5.693791 0.886201
v 0.174397 5.693791 0.681184
v 0.000000 5.693791 1.217925
v -0.174398 5.693791 0.681184
v -0.456579 5.693791 0.886201
v -0.564362 5.693791 1.217925
v -0.456579 5.693791 1.549648
v -0.174397 5.693791 1.754665
v 0.174397 5.693791 1.754665
v 0.456578 5.693791 1.549649
v 0.564362 5.693791 1.217925
v -1.626832 4.455868 -1.805710
v -2.126832 4.455868 -2.168981
v -2.744866 4.455868 -2.168981
v -3.244866 4.455868 -1.805710
v -3.435849 4.455868 -1.217924
v -3.244866 4.455868 -0.630139
v -2.744866 4.455868 -0.266868
v -2.126832 4.455868 -0.266868
v -1.626832 4.455868 -0.630139
v -1.435849 4.455868 -1.217924
v -1.979271 5.693791 -1.549648
v -2.261452 5.693791 -1.754665
v -2.435849 5.693791 -1.217924
v -2.610247 5.693791 -1.754665
v -2.892428 5.693791 -1.549648
v -3.000211 5.693791 -1.217924
v -2.892428 5.693791 -0.886201
v -2.610247 5.693791 -0.681184
v -2.261452 5.693791 -0.681184
v -1.979271 5.693791 -0.886201
v -1.871487 5.693791 -1.217924
v 3.244866 4.455868 0.630139
v 2.744866 4.455868 0.266868
v 2.126832 4.455868 0.266868
v 1.626832 4.455868 0.630139
v 1.435849 4.455868 1.217925
v 1.626832 4.455868 1.805710
v 2.126832 4.455868 2.168981
v 2.744866 4.455868 2.168981
v 3.244866 4.455868 1.805710
v 3.435849 4.455868 1.217925
v 2.892428 5.693791 0.886201
v 2.610247 5.693791 0.681184
v 2.435849 5.693791 1.217925
v 2.261452 5.693791 0.681184
v 1.979270 5.693791 0.886201
v 1.871487 5.693791 1.217925
v 1.979270 5.693791 1.549648
v 2.261452 5.693791 1.754665
v 2.610247 5.693791 1.754665
v 2.892428 5.693791 1.549649
v 3.000211 5.693791 1.217925
v 3.244866 4.455868 -1.805710
v 2.744866 4.455868 -2.168981
v 2.126832 4.455868 -2.168981
v 1.626832 4.455868 -1.805710
v 1.435849 4.455868 -1.217924
v 1.626832 4.455868 -0.630139
v 2.126832 4.455868 -0.266868
v 2.744866 4.455868 -0.266868
v 3.244866 4.455868 -0.630139
v 3.435849 4.455868 -1.217924
v 2.892428 5.693791 -1.549648
v 2.610247 5.693791 -1.754665
v 2.435849 5.693791 -1.217924
v 2.261452 5.693791 -1.754665
v 1.979270 5.693791 -1.549648
v 1.871487 5.693791 -1.217924
v 1.979270 5.693791 -0.886201
v 2.261452 5.693791 -0.681184
v 2.610247 5.693791 -0.681184
v 2.892428 5.693791 -0.886201
v 3.000211 5.693791 -1.217924
v 0.809017 4.455868 -1.805710
v 0.309017 4.455868 -2.168981
v -0.309017 4.455868 -2.168981
v -0.809017 4.455868 -1.805710
v -1.000000 4.455868 -1.217924
v -0.809017 4.455868 -0.630139
v -0.309017 4.455868 -0.266868
v 0.309017 4.455868 -0.266868
v 0.809017 4.455868 -0.630139
v 1.000000 4.455868 -1.217924
v 0.456578 5.693791 -1.549648
v 0.174397 5.693791 -1.754665
v 0.000000 5.693791 -1.217924
v -0.174398 5.693791 -1.754665
v -0.456579 5.693791 -1.549648
v -0.564362 5.693791 -1.217924
v -0.456579 5.693791 -0.886201
v -0.174397 5.693791 -0.681184
v 0.174397 5.693791 -0.681184
v 0.456578 5.693791 -0.886201
v 0.564362 5.693791 -1.217924
v -3.653774 -5.693791 2.435849
v 3.653774 -5.693791 2.435849
v -3.653774 4.726063 2.435849
v 3.653774 4.726063 2.435849
v -3.653774 4.726063 -2.435849
v 3.653774 4.726063 -2.435849
v -3.653774 -5.693791 -2.435849
v 3.653774 -5.693791 -2.435849
vt 0.626409 0.751909
vt 0.548284 0.695147
vt 0.451716 0.695147
vt 0.373591 0.751909
vt 0.343750 0.843750
vt 0.373591 0.935591
vt 0.451716 0.992353
vt 0.548284 0.992353
vt 0.626409 0.935591
vt 0.656250 0.843750
vt 0.500000 0.837500
vt 0.626409 0.935591
vt 0.548284 0.992353
vt 0.451716 0.992353
vt 0.373591 0.935591
vt 0.343750 0.843750
vt 0.373591 0.751909
vt 0.451716 0.695147
vt 0.548284 0.695147
vt 0.626409 0.751909
vt 0.656250 0.843750
vt 0.626409 0.935591
vt 0.548284 0.992353
vt 0.500000 0.837500
vt 0.451716 0.992353
vt 0.373591 0.935591
vt 0.343750 0.843750
vt 0.373591 0.751909
vt 0.451716 0.695147
vt 0.548284 0.695147
vt 0.626409 0.751909
vt 0.656250 0.843750
vt 0.626409 0.935591
vt 0.548284 0.992353
vt 0.451716 0.992353
vt 0.373591 0.935591
vt 0.343750 0.843750
vt 0.373591 0.751909
vt 0.451716 0.695147
vt 0.548284 0.695147
vt 0.626409 0.751909
vt 0.656250 0.843750
vt 0.626409 0.935591
vt 0.548284 0.992353
vt 0.500000 0.837500
vt 0.451716 0.992353
vt 0.373591 0.935591
vt 0.343750 0.843750
vt 0.373591 0.751909
vt 0.451716 0.695147
vt 0.548284 0.695147
vt 0.626409 0.751909
vt 0.656250 0.843750
vt 0.626409 0.935591
vt 0.548284 0.992353
vt 0.451716 0.992353
vt 0.373591 0.935591
vt 0.343750 0.843750
vt 0.373591 0.751909
vt 0.451716 0.695147
vt 0.548284 0.695147
vt 0.626409 0.751909
vt 0.656250 0.843750
vt 0.626409 0.935591
vt 0.548284 0.992353
vt 0.500000 0.837500
vt 0.451716 0.992353
vt 0.373591 0.935591
vt 0.343750 0.843750
vt 0.373591 0.751909
vt 0.451716 0.695147
vt 0.548284 0.695147
vt 0.626409 0.751909
vt 0.656250 0.843750
vt 0.626409 0.935591
vt 0.548284 0.992353
vt 0.451716 0.992353
vt 0.373591 0.935591
vt 0.343750 0.843750
vt 0.373591 0.751909
vt 0.451716 0.695147
vt 0.548284 0.695147
vt 0.626409 0.751909
vt 0.656250 0.843750
vt 0.626409 0.935591
vt 0.548284 0.992353
vt 0.500000 0.837500
vt 0.451716 0.992353
vt 0.373591 0.935591
vt 0.343750 0.843750
vt 0.373591 0.751909
vt 0.451716 0.695147
vt 0.548284 0.695147
vt 0.626409 0.751909
vt 0.656250 0.843750
vt 0.626409 0.935591
vt 0.548284 0.992353
vt 0.451716 0.992353
vt 0.373591 0.935591
vt 0.343750 0.843750
vt 0.373591 0.751909
vt 0.451716 0.695147
vt 0.548284 0.695147
vt 0.626409 0.751909
vt 0.656250 0.843750
vt 0.626409 0.935591
vt 0.548284 0.992353
vt 0.500000 0.837500
vt 0.451716 0.992353
vt 0.373591 0.935591
vt 0.343750 0.843750
vt 0.373591 0.751909
vt 0.451716 0.695147
vt 0.548284 0.695147
vt 0.626409 0.751909
vt 0.656250 0.843750
vt 0.626409 0.935591
vt 0.548284 0.992353
vt 0.451716 0.992353
vt 0.373591 0.935591
vt 0.343750 0.843750
vt 0.373591 0.751909
vt 0.451716 0.695147
vt 0.548284 0.695147
vt 0.626409 0.751909
vt 0.656250 0.843750
vt 0.375000 0.000000
vt 0.625000 0.000000
vt 0.625000 0.250000
vt 0.375000 0.250000
vt 0.625000 0.500000
vt 0.375000 0.500000
vt 0.625000 0.750000
vt 0.375000 0.750000
vt 0.625000 1.000000
vt 0.375000 1.000000
vt 0.875000 0.000000
vt 0.875000 0.250000
vt 0.125000 0.000000
vt 0.125000 0.250000
vn 0.000000 1.000000 0.000000
vn 0.000000 1.000000 0.000000
vn 0.000000 1.000000 0.000000
vn 0.000000 1.000000 0.000001
vn 0.000000 1.000000 -0.000001
vn 0.000000 1.000000 0.000000
vn 0.000000 1.000000 0.000001
vn 0.000000 1.000000 0.000000
vn 0.000000 1.000000 0.000000
vn 0.000000 1.000000 0.000000
vn 0.000000 1.000000 0.000000
vn 0.557395 0.317382 -0.767189
vn 0.557395 0.317382 -0.767189
vn 0.557395 0.317382 -0.767189
vn 0.557395 0.317382 -0.767189
vn -0.000000 0.317382 -0.948298
vn -0.000000 0.317382 -0.948298
vn -0.000000 0.317382 -0.948298
vn -0.000000 0.317382 -0.948298
vn -0.557396 0.317382 -0.767189
vn -0.557396 0.317382 -0.767189
vn -0.557396 0.317382 -0.767189
vn -0.557396 0.317382 -0.767189
vn -0.901885 0.317382 -0.293040
vn -0.901885 0.317382 -0.293040
vn -0.901885 0.317382 -0.293040
vn -0.901885 0.317382 -0.293040
vn -0.901885 0.317383 0.293040
vn -0.901885 0.317383 0.293040
vn -0.901885 0.317383 0.293040
vn -0.901885 0.317383 0.293040
vn -0.557395 0.317382 0.767189
vn -0.557395 0.317382 0.767189
vn -0.557395 0.317382 0.767189
vn -0.557395 0.317382 0.767189
vn 0.000000 0.317383 0.948298
vn 0.000000 0.317383 0.948298
vn 0.000000 0.317383 0.948298
vn 0.000000 0.317383 0.948298
vn 0.557396 0.317382 0.767189
vn 0.557396 0.317382 0.767189
vn 0.557396 0.317382 0.767189
vn 0.557396 0.317382 0.767189
vn 0.901885 0.317383 0.293040
vn 0.901885 0.317383 0.293040
vn 0.901885 0.317383 0.293040
vn 0.901885 0.317383 0.293040
vn 0.901885 0.317383 -0.293040
vn 0.901885 0.317382 -0.293040
vn 0.901885 0.317382 -0.293040
vn 0.901885 0.317382 -0.293040
vn 0.000000 1.000000 0.000000
vn 0.000000 1.000000 0.000000
vn 0.000000 1.000000 -0.000000
vn 0.000000 1.000000 0.000001
vn 0.000000 1.000000 0.000001
vn 0.000000 1.000000 -0.000001
vn 0.000000 1.000000 -0.000001
vn 0.000000 1.000000 0.000000
vn 0.000000 1.000000 0.000000
vn 0.000000 1.000000 0.000000
vn 0.000000 1.000000 0.000000
vn 0.557395 0.317382 -0.767189
vn 0.557395 0.317382 -0.767189
vn 0.557395 0.317383 -0.767189
vn 0.557395 0.317382 -0.767189
vn -0.000000 0.317382 -0.948298
vn -0.000000 0.317382 -0.948298
vn -0.000000 0.317382 -0.948298
vn -0.000000 0.317382 -0.948298
vn -0.557396 0.317382 -0.767189
vn -0.557396 0.317382 -0.767189
vn -0.557396 0.317382 -0.767189
vn -0.557396 0.317382 -0.767189
vn -0.901885 0.317382 -0.293040
vn -0.901885 0.317382 -0.293040
vn -0.901885 0.317382 -0.293040
vn -0.901885 0.317382 -0.293040
vn -0.901885 0.317383 0.293040
vn -0.901885 0.317383 0.293040
vn -0.901885 0.317382 0.293040
vn -0.901885 0.317383 0.293040
vn -0.557395 0.317382 0.767189
vn -0.557395 0.317382 0.767189
vn -0.557395 0.317382 0.767189
vn -0.557395 0.317382 0.767189
vn 0.000000 0.317382 0.948298
vn 0.000000 0.317382 0.948298
vn 0.000000 0.317382 0.948298
vn 0.000000 0.317382 0.948298
vn 0.557396 0.317382 0.767189
vn 0.557396 0.317382 0.767189
vn 0.557396 0.317382 0.767189
vn 0.557396 0.317382 0.767189
vn 0.901885 0.317383 0.293040
vn 0.901885 0.317383 0.293040
vn 0.901885 0.317383 0.293040
vn 0.901885 0.317383 0.293040
vn 0.901885 0.317383 -0.293040
vn 0.901885 0.317383 -0.293040
vn 0.901885 0.317383 -0.293040
vn 0.901885 0.317383 -0.293040
vn 0.000000 1.000000 0.000000
vn 0.000000 1.000000 0.000000
vn 0.000000 1.000000 0.000000
vn 0.000000 1.000000 0.000001
vn 0.000000 1.000000 -0.000001
vn 0.000000 1.000000 0.000000
vn 0.000000 1.000000 0.000001
vn 0.000000 1.000000 0.000000
vn 0.000000 1.000000 0.000000
vn 0.000000 1.000000 0.000000
vn 0.000000 1.000000 0.000000
vn 0.557395 0.317382 -0.767189
vn 0.557395 0.317382 -0.767189
vn 0.557395 0.317382 -0.767189
vn 0.557395 0.317382 -0.767189
vn 0.000000 0.317382 -0.948298
vn 0.000000 0.317382 -0.948298
vn 0.000000 0.317382 -0.948298
vn 0.000000 0.317382 -0.948298
vn -0.557396 0.317383 -0.767189
vn -0.557396 0.317383 -0.767189
vn -0.557396 0.317382 -0.767189
vn -0.557396 0.317382 -0.767189
vn -0.901885 0.317382 -0.293040
vn -0.901885 0.317383 -0.293040
vn -0.901885 0.317382 -0.293040
vn -0.901885 0.317382 -0.293040
vn -0.901885 0.317382 0.293040
vn -0.901885 0.317382 0.293040
vn -0.901885 0.317382 0.293040
vn -0.901885 0.317383 0.293040
vn -0.557395 0.317382 0.767189
vn -0.557395 0.317382 0.767189
vn -0.557395 0.317382 0.767189
vn -0.557395 0.317382 0.767189
vn 0.000000 0.317382 0.948298
vn 0.000000 0.317382 0.948298
vn 0.000000 0.317382 0.948298
vn 0.000000 0.317382 0.948298
vn 0.557396 0.317383 0.767189
vn 0.557396 0.317383 0.767189
vn 0.557396 0.317382 0.767189
vn 0.557395 0.317382 0.767189
vn 0.901885 0.317383 0.293040
vn 0.901885 0.317383 0.293040
vn 0.901885 0.317383 0.293040
vn 0.901885 0.317383 0.293040
vn 0.901885 0.317383 -0.293040
vn 0.901885 0.317383 -0.293040
vn 0.901885 0.317383 -0.293040
vn 0.901885 0.317383 -0.293040
vn 0.000000 1.000000 -0.000001
vn 0.000000 1.000000 0.000000
vn 0.000000 1.000000 -0.000000
vn 0.000000 1.000000 0.000001
vn 0.000000 1.000000 -0.000001
vn 0.000000 1.000000 0.000000
vn 0.000000 1.000000 0.000001
vn 0.000000 1.000000 0.000000
vn 0.000000 1.000000 -0.000001
vn 0.000000 1.000000 0.000001
vn 0.000000 1.000000 0.000000
vn 0.557395 0.317383 -0.767189
vn 0.557395 0.317383 -0.767189
vn 0.557395 0.317383 -0.767189
vn 0.557395 0.317383 -0.767189
vn -0.000000 0.317382 -0.948298
vn -0.000000 0.317382 -0.948298
vn -0.000000 0.317382 -0.948298
vn -0.000000 0.317382 -0.948298
vn -0.557396 0.317383 -0.767189
vn -0.557396 0.317383 -0.767189
vn -0.557396 0.317383 -0.767189
vn -0.557396 0.317383 -0.767189
vn -0.901885 0.317382 -0.293040
vn -0.901885 0.317382 -0.293040
vn -0.901885 0.317382 -0.293040
vn -0.901885 0.317382 -0.293040
vn -0.901885 0.317383 0.293040
vn -0.901885 0.317383 0.293040
vn -0.901885 0.317383 0.293040
vn -0.901885 0.317383 0.293040
vn -0.557395 0.317382 0.767189
vn -0.557395 0.317382 0.767189
vn -0.557395 0.317382 0.767189
vn -0.557395 0.317382 0.767189
vn 0.000000 0.317382 0.948298
vn 0.000000 0.317382 0.948298
vn 0.000000 0.317382 0.948298
vn 0.000000 0.317382 0.948298
vn 0.557396 0.317382 0.767189
vn 0.557396 0.317382 0.767189
vn 0.557396 0.317382 0.767189
vn 0.557396 0.317382 0.767189
vn 0.901885 0.317382 0.293040
vn 0.901885 0.317382 0.293040
vn 0.901885 0.317382 0.293040
vn 0.901885 0.317382 0.293040
vn 0.901885 0.317382 -0.293040
vn 0.901885 0.317382 -0.293040
vn 0.901885 0.317382 -0.293040
vn 0.901885 0.317382 -0.293040
vn 0.000000 1.000000 -0.000001
vn 0.000000 1.000000 0.000000
vn 0.000000 1.000000 -0.000000
vn 0.000000 1.000000 0.000001
vn 0.000000 1.000000 -0.000001
vn 0.000000 1.000000 0.000000
vn 0.000000 1.000000 0.000001
vn 0.000000 1.000000 0.000000
vn 0.000000 1.000000 -0.000001
vn 0.000000 1.000000 0.000001
vn 0.000000 1.000000 -0.000000
vn 0.557395 0.317383 -0.767189
vn 0.557395 0.317382 -0.767189
vn 0.557395 0.317382 -0.767189
vn 0.557395 0.317382 -0.767189
vn 0.000000 0.317382 -0.948298
vn 0.000000 0.317382 -0.948298
vn 0.000000 0.317382 -0.948298
vn 0.000000 0.317382 -0.948298
vn -0.557395 0.317383 -0.767189
vn -0.557395 0.317383 -0.767189
vn -0.557395 0.317383 -0.767189
vn -0.557395 0.317383 -0.767189
vn -0.901885 0.317382 -0.293040
vn -0.901885 0.317383 -0.293040
vn -0.901885 0.317382 -0.293040
vn -0.901885 0.317382 -0.293040
vn -0.901885 0.317383 0.293040
vn -0.901885 0.317383 0.293040
vn -0.901885 0.317383 0.293040
vn -0.901885 0.317383 0.293040
vn -0.557395 0.317382 0.767189
vn -0.557395 0.317382 0.767189
vn -0.557395 0.317382 0.767189
vn -0.557395 0.317382 0.767189
vn 0.000000 0.317382 0.948298
vn 0.000000 0.317382 0.948298
vn 0.000000 0.317382 0.948298
vn 0.000000 0.317382 0.948298
vn 0.557395 0.317382 0.767189
vn 0.557395 0.317382 0.767189
vn 0.557395 0.317382 0.767189
vn 0.557395 0.317382 0.767189
vn 0.901885 0.317382 0.293040
vn 0.901885 0.317383 0.293040
vn 0.901885 0.317382 0.293040
vn 0.901885 0.317382 0.293040
vn 0.901885 0.317383 -0.293040
vn 0.901885 0.317383 -0.293040
vn 0.901885 0.317383 -0.293040
vn 0.901885 0.317383 -0.293040
vn 0.000000 1.000000 0.000000
vn 0.000000 1.000000 0.000000
vn 0.000000 1.000000 -0.000000
vn 0.000000 1.000000 0.000001
vn 0.000000 1.000000 0.000001
vn 0.000000 1.000000 -0.000001
vn 0.000000 1.000000 -0.000001
vn 0.000000 1.000000 0.000000
vn 0.000000 1.000000 0.000000
vn 0.000000 1.000000 0.000000
vn 0.000000 1.000000 0.000000
vn 0.557395 0.317382 -0.767189
vn 0.557395 0.317382 -0.767189
vn 0.557395 0.317382 -0.767189
vn 0.557395 0.317382 -0.767189
vn 0.000000 0.317382 -0.948298
vn 0.000000 0.317382 -0.948298
vn 0.000000 0.317382 -0.948298
vn 0.000000 0.317382 -0.948298
vn -0.557396 0.317383 -0.767189
vn -0.557396 0.317383 -0.767189
vn -0.557396 0.317382 -0.767189
vn -0.557396 0.317382 -0.767189
vn -0.901885 0.317383 -0.293040
vn -0.901885 0.317383 -0.293040
vn -0.901885 0.317383 -0.293040
vn -0.901885 0.317383 -0.293040
vn -0.901885 0.317383 0.293040
vn -0.901885 0.317383 0.293040
vn -0.901885 0.317383 0.293040
vn -0.901885 0.317383 0.293040
vn -0.557395 0.317382 0.767189
vn -0.557395 0.317382 0.767189
vn -0.557395 0.317383 0.767189
vn -0.557395 0.317382 0.767189
vn 0.000000 0.317382 0.948298
vn 0.000000 0.317382 0.948298
vn 0.000000 0.317382 0.948298
vn 0.000000 0.317382 0.948298
vn 0.557395 0.317382 0.767189
vn 0.557395 0.317382 0.767189
vn 0.557396 0.317382 0.767189
vn 0.557395 0.317382 0.767189
vn 0.901885 0.317383 0.293040
vn 0.901885 0.317383 0.293040
vn 0.901885 0.317383 0.293040
vn 0.901885 0.317383 0.293040
vn 0.901885 0.317383 -0.293040
vn 0.901885 0.317383 -0.293040
vn 0.901885 0.317383 -0.293040
vn 0.901885 0.317383 -0.293040
vn 0.000000 0.000000 1.000000
vn 0.000000 0.000000 1.000000
vn 0.000000 0.000000 1.000000
vn 0.000000 0.000000 1.000000
vn 0.000000 1.000000 0.000000
vn 0.000000 1.000000 0.000000
vn 0.000000 1.000000 0.000000
vn 0.000000 1.000000 0.000000
vn 0.000000 0.000000 -1.000000
vn 0.000000 0.000000 -1.000000
vn 0.000000 0.000000 -1.000000
vn 0.000000 0.000000 -1.000000
vn 0.000000 -1.000000 0.000000
vn 0.000000 -1.000000 0.000000
vn 0.000000 -1.000000 0.000000
vn 0.000000 -1.000000 0.000000
vn 1.000000 0.000000 0.000000
vn 1.000000 0.000000 0.000000
vn 1.000000 0.000000 0.000000
vn 1.000000 0.000000 0.000000
vn -1.000000 0.000000 0.000000
vn -1.000000 0.000000 0.000000
vn -1.000000 0.000000 0.000000
vn -1.000000 0.000000 0.000000
s 1
g pCylinder10
usemtl initialShadingGroup
f 11/12/1 12/13/2 13/11/3
f 12/13/2 14/14/4 13/11/3
f 14/14/4 15/15/5 13/11/3
f 15/15/5 16/16/6 13/11/3
f 16/16/6 17/17/7 13/11/3
f 17/17/7 18/18/8 13/11/3
f 18/18/8 19/19/9 13/11/3
f 19/19/9 20/20/10 13/11/3
f 20/20/10 21/21/11 13/11/3
f 21/21/11 11/12/1 13/11/3
s off
f 1/9/12 2/8/13 12/13/14 11/12/15
f 2/8/16 3/7/17 14/14/18 12/13/19
f 3/7/20 4/6/21 15/15/22 14/14/23
f 4/6/24 5/5/25 16/16/26 15/15/27
f 5/5/28 6/4/29 17/17/30 16/16/31
f 6/4/32 7/3/33 18/18/34 17/17/35
f 7/3/36 8/2/37 19/19/38 18/18/39
f 8/2/40 9/1/41 20/20/42 19/19/43
f 9/1/44 10/10/45 21/21/46 20/20/47
f 10/10/48 1/9/49 11/12/50 21/21/51
s 2
f 32/22/52 33/23/53 34/24/54
f 33/23/53 35/25/55 34/24/54
f 35/25/55 36/26/56 34/24/54
f 36/26/56 37/27/57 34/24/54
f 37/27/57 38/28/58 34/24/54
f 38/28/58 39/29/59 34/24/54
f 39/29/59 40/30/60 34/24/54
f 40/30/60 41/31/61 34/24/54
f 41/31/61 42/32/62 34/24/54
f 42/32/62 32/22/52 34/24/54
s off
f 22/33/63 23/34/64 33/23/65 32/22/66
f 23/34/67 24/35/68 35/25/69 33/23/70
f 24/35/71 25/36/72 36/26/73 35/25/74
f 25/36/75 26/37/76 37/27/77 36/26/78
f 26/37/79 27/38/80 38/28/81 37/27/82
f 27/38/83 28/39/84 39/29/85 38/28/86
f 28/39/87 29/40/88 40/30/89 39/29/90
f 29/40/91 30/41/92 41/31/93 40/30/94
f 30/41/95 31/42/96 42/32/97 41/31/98
f 31/42/99 22/33/100 32/22/101 42/32/102
s 3
f 53/43/103 54/44/104 55/45/105
f 54/44/104 56/46/106 55/45/105
f 56/46/106 57/47/107 55/45/105
f 57/47/107 58/48/108 55/45/105
f 58/48/108 59/49/109 55/45/105
f 59/49/109 60/50/110 55/45/105
f 60/50/110 61/51/111 55/45/105
f 61/51/111 62/52/112 55/45/105
f 62/52/112 63/53/113 55/45/105
f 63/53/113 53/43/103 55/45/105
s off
f 43/54/114 44/55/115 54/44/116 53/43/117
f 44/55/118 45/56/119 56/46/120 54/44/121
f 45/56/122 46/57/123 57/47/124 56/46/125
f 46/57/126 47/58/127 58/48/128 57/47/129
f 47/58/130 48/59/131 59/49/132 58/48/133
f 48/59/134 49/60/135 60/50/136 59/49/137
f 49/60/138 50/61/139 61/51/140 60/50/141
f 50/61/142 51/62/143 62/52/144 61/51/145
f 51/62/146 52/63/147 63/53/148 62/52/149
f 52/63/150 43/54/151 53/43/152 63/53/153
s 4
f 74/64/154 75/65/155 76/66/156
f 75/65/155 77/67/157 76/66/156
f 77/67/157 78/68/158 76/66/156
f 78/68/158 79/69/159 76/66/156
f 79/69/159 80/70/160 76/66/156
f 80/70/160 81/71/161 76/66/156
f 81/71/161 82/72/162 76/66/156
f 82/72/162 83/73/163 76/66/156
f 83/73/163 84/74/164 76/66/156
f 84/74/164 74/64/154 76/66/156
s off
f 64/75/165 65/76/166 75/65/167 74/64/168
f 65/76/169 66/77/170 77/67/171 75/65/172
f 66/77/173 67/78/174 78/68/175 77/67/176
f 67/78/177 68/79/178 79/69/179 78/68/180
f 68/79/181 69/80/182 80/70/183 79/69/184
f 69/80/185 70/81/186 81/71/187 80/70/188
f 70/81/189 71/82/190 82/72/191 81/71/192
f 71/82/193 72/83/194 83/73/195 82/72/196
f 72/83/197 73/84/198 84/74/199 83/73/200
f 73/84/201 64/75/202 74/64/203 84/74/204
s 5
f 95/85/205 96/86/206 97/87/207
f 96/86/206 98/88/208 97/87/207
f 98/88/208 99/89/209 97/87/207
f 99/89/209 100/90/210 97/87/207
f 100/90/210 101/91/211 97/87/207
f 101/91/211 102/92/212 97/87/207
f 102/92/212 103/93/213 97/87/207
f 103/93/213 104/94/214 97/87/207
f 104/94/214 105/95/215 97/87/207
f 105/95/215 95/85/205 97/87/207
s off
f 85/96/216 86/97/217 96/86/218 95/85/219
f 86/97/220 87/98/221 98/88/222 96/86/223
f 87/98/224 88/99/225 99/89/226 98/88/227
f 88/99/228 89/100/229 100/90/230 99/89/231
f 89/100/232 90/101/233 101/91/234 100/90/235
f 90/101/236 91/102/237 102/92/238 101/91/239
f 91/102/240 92/103/241 103/93/242 102/92/243
f 92/103/244 93/104/245 104/94/246 103/93/247
f 93/104/248 94/105/249 105/95/250 104/94/251
f 94/105/252 85/96/253 95/85/254 105/95/255
s 6
f 116/106/256 117/107/257 118/108/258
f 117/107/257 119/109/259 118/108/258
f 119/109/259 120/110/260 118/108/258
f 120/110/260 121/111/261 118/108/258
f 121/111/261 122/112/262 118/108/258
f 122/112/262 123/113/263 118/108/258
f 123/113/263 124/114/264 118/108/258
f 124/114/264 125/115/265 118/108/258
f 125/115/265 126/116/266 118/108/258
f 126/116/266 116/106/256 118/108/258
s off
f 106/117/267 107/118/268 117/107/269 116/106/270
f 107/118/271 108/119/272 119/109/273 117/107/274
f 108/119/275 109/120/276 120/110/277 119/109/278
f 109/120/279 110/121/280 121/111/281 120/110/282
f 110/121/283 111/122/284 122/112/285 121/111/286
f 111/122/287 112/123/288 123/113/289 122/112/290
f 112/123/291 113/124/292 124/114/293 123/113/294
f 113/124/295 114/125/296 125/115/297 124/114/298
f 114/125/299 115/126/300 126/116/301 125/115/302
f 115/126/303 106/117/304 116/106/305 126/116/306
f 127/127/307 128/128/308 130/129/309 129/130/310
f 129/130/311 130/129/312 132/131/313 131/132/314
f 131/132/315 132/131/316 134/133/317 133/134/318
f 133/134/319 134/133/320 128/135/321 127/136/322
f 128/128/323 134/137/324 132/138/325 130/129/326
f 133/139/327 127/127/328 129/130/329 131/140/330
